<svg width="477" height="321" viewBox="0 0 477 321" fill="none" xmlns="http://www.w3.org/2000/svg">
<path fill-rule="evenodd" clip-rule="evenodd" d="M385.517 0.565141L430.887 79.9674L477 159.37L432.374 240.185L385.269 321H288.332C306.182 317.327 321.306 310.545 333.95 299.807C353.04 284.266 362.461 262.225 362.461 234.816C362.461 208.254 354.279 187.627 338.66 171.238C322.545 155.131 299.241 141.85 268.003 132.243C246.681 124.331 231.062 116.984 222.385 110.202C213.708 102.856 208.997 94.6611 208.997 83.3583C208.997 71.7729 213.212 62.1655 221.641 54.5361C230.071 46.9067 241.971 43.2333 257.59 43.2333C268.251 43.2333 278.415 44.3636 287.588 47.1893C297.009 50.015 304.199 52.8407 309.158 56.5141L316.595 100.595H358.742V35.0387C346.842 22.6056 331.718 12.7157 314.116 5.08627C309.653 3.10827 304.943 1.41285 300.48 0L385.517 0.565141ZM228.335 321H66.6907V282.57L96.9371 275.789V49.7324H45.3696L42.8904 85.9014H0V0.565141H215.939C203.295 5.08627 192.139 11.0202 181.726 19.7799C162.388 36.169 152.471 57.3618 152.471 83.3583C152.471 109.92 161.149 130.265 178.007 145.524C195.114 160.783 220.154 173.498 253.871 184.801C273.209 191.583 286.597 198.364 294.282 205.994C301.968 213.623 305.935 223.513 305.935 235.664C305.935 247.814 301.72 257.422 294.034 264.486C285.853 271.55 274.449 275.224 258.83 275.224C246.929 275.224 236.021 273.528 226.6 270.137C217.179 266.464 208.997 262.225 203.295 256.857L197.345 211.08H153.711V278.049C165.611 292.46 180.734 303.198 198.585 311.675C207.51 315.914 217.427 319.022 228.335 321Z" fill="#F1F5FA"/>
</svg>
