<svg width="60" height="61" viewBox="0 0 60 61" fill="none" xmlns="http://www.w3.org/2000/svg">
<path d="M30 56.9312L14 50.2484V32.5672L16.7081 33.308L30 26.9312V56.9312Z" stroke="white" stroke-width="3" stroke-miterlimit="10" stroke-linejoin="round"/>
<path d="M30 26.5429L17.2968 32.9312L2 26.3673L14.8165 19.9312L30 26.5429Z" stroke="white" stroke-width="3" stroke-miterlimit="10" stroke-linejoin="round"/>
<path d="M30 56.9312L45 50.2484V31.7943L42.2013 33.0342L30 26.9312V56.9312Z" stroke="white" stroke-width="3" stroke-miterlimit="10" stroke-linejoin="round"/>
<path d="M30 26.684L42.0967 32.9312L57 26.211L44.842 19.9312L30 26.684Z" stroke="white" stroke-width="3" stroke-miterlimit="10" stroke-linejoin="round"/>
<path d="M41.0508 8.93115L31 13.4108L44.998 19.9312L55 15.5842L41.0508 8.93115Z" stroke="white" stroke-width="3" stroke-miterlimit="10" stroke-linejoin="round"/>
<path d="M20.2689 8.93115L31 13.4596L14.5907 19.9312L4 15.2216L20.2689 8.93115Z" stroke="white" stroke-width="3" stroke-miterlimit="10" stroke-linejoin="round"/>
</svg>
