<svg width="60" height="61" viewBox="0 0 60 61" fill="none" xmlns="http://www.w3.org/2000/svg">
<path d="M22 12.9312L43.7469 23.0572L23.3237 32.2384L45 42.9312" stroke="white" stroke-width="3" stroke-miterlimit="10" stroke-linejoin="round"/>
<path d="M45.5 12.9312L23.3237 23.0572L43.7469 32.2384L21 42.9312" stroke="white" stroke-width="3" stroke-miterlimit="10" stroke-linejoin="round"/>
<path d="M48 12.9312H22.0237H19V6.93115H48V12.9312Z" stroke="white" stroke-width="3" stroke-miterlimit="10" stroke-linejoin="round"/>
<path d="M52 47.9312H19.7494H16V42.9312H52V47.9312Z" stroke="white" stroke-width="3" stroke-miterlimit="10" stroke-linejoin="round"/>
<path d="M8 28.9312V45.8612H14.5" stroke="white" stroke-width="3" stroke-miterlimit="10" stroke-linejoin="round"/>
<path d="M8 28.9312C9.65685 28.9312 11 27.588 11 25.9312C11 24.2743 9.65685 22.9312 8 22.9312C6.34315 22.9312 5 24.2743 5 25.9312C5 27.588 6.34315 28.9312 8 28.9312Z" stroke="white" stroke-width="3" stroke-miterlimit="10" stroke-linejoin="round"/>
<path d="M21 54.9312C22.6569 54.9312 24 53.588 24 51.9312C24 50.2743 22.6569 48.9312 21 48.9312C19.3431 48.9312 18 50.2743 18 51.9312C18 53.588 19.3431 54.9312 21 54.9312Z" stroke="white" stroke-width="3" stroke-miterlimit="10" stroke-linejoin="round"/>
<path d="M45 54.9312C46.6569 54.9312 48 53.588 48 51.9312C48 50.2743 46.6569 48.9312 45 48.9312C43.3431 48.9312 42 50.2743 42 51.9312C42 53.588 43.3431 54.9312 45 54.9312Z" stroke="white" stroke-width="3" stroke-miterlimit="10" stroke-linejoin="round"/>
</svg>
