<svg width="60" height="61" viewBox="0 0 60 61" fill="none" xmlns="http://www.w3.org/2000/svg">
<path d="M30.4999 55.7054C44.4586 55.7054 55.7743 44.3897 55.7743 30.4311C55.7743 16.4724 44.4586 5.15674 30.4999 5.15674C16.5413 5.15674 5.22559 16.4724 5.22559 30.4311C5.22559 44.3897 16.5413 55.7054 30.4999 55.7054Z" stroke="white" stroke-width="3" stroke-miterlimit="10"/>
<path d="M30.4999 45.6257C38.8917 45.6257 45.6946 38.8228 45.6946 30.431C45.6946 22.0392 38.8917 15.2363 30.4999 15.2363C22.1081 15.2363 15.3052 22.0392 15.3052 30.431C15.3052 38.8228 22.1081 45.6257 30.4999 45.6257Z" stroke="white" stroke-width="3" stroke-miterlimit="10"/>
<path d="M30.5001 12.2277C31.414 12.2277 32.155 11.4868 32.155 10.5728C32.155 9.65888 31.414 8.91797 30.5001 8.91797C29.5861 8.91797 28.8452 9.65888 28.8452 10.5728C28.8452 11.4868 29.5861 12.2277 30.5001 12.2277Z" stroke="white" stroke-width="3" stroke-miterlimit="10"/>
<path d="M30.5001 52.1398C31.414 52.1398 32.155 51.3989 32.155 50.4849C32.155 49.571 31.414 48.8301 30.5001 48.8301C29.5861 48.8301 28.8452 49.571 28.8452 50.4849C28.8452 51.3989 29.5861 52.1398 30.5001 52.1398Z" stroke="white" stroke-width="3" stroke-miterlimit="10"/>
<path d="M20.5255 14.9054C21.4394 14.9054 22.1803 14.1645 22.1803 13.2506C22.1803 12.3366 21.4394 11.5957 20.5255 11.5957C19.6115 11.5957 18.8706 12.3366 18.8706 13.2506C18.8706 14.1645 19.6115 14.9054 20.5255 14.9054Z" stroke="white" stroke-width="3" stroke-miterlimit="10"/>
<path d="M40.4742 49.4621C41.3881 49.4621 42.1291 48.7212 42.1291 47.8072C42.1291 46.8933 41.3881 46.1523 40.4742 46.1523C39.5602 46.1523 38.8193 46.8933 38.8193 47.8072C38.8193 48.7212 39.5602 49.4621 40.4742 49.4621Z" stroke="white" stroke-width="3" stroke-miterlimit="10"/>
<path d="M13.2139 22.2018C14.1279 22.2018 14.8688 21.4609 14.8688 20.547C14.8688 19.633 14.1279 18.8921 13.2139 18.8921C12.3 18.8921 11.5591 19.633 11.5591 20.547C11.5591 21.4609 12.3 22.2018 13.2139 22.2018Z" stroke="white" stroke-width="3" stroke-miterlimit="10"/>
<path d="M47.7857 42.1505C48.6997 42.1505 49.4406 41.4096 49.4406 40.4957C49.4406 39.5817 48.6997 38.8408 47.7857 38.8408C46.8718 38.8408 46.1309 39.5817 46.1309 40.4957C46.1309 41.4096 46.8718 42.1505 47.7857 42.1505Z" stroke="white" stroke-width="3" stroke-miterlimit="10"/>
<path d="M10.5514 32.176C11.4653 32.176 12.2062 31.435 12.2062 30.5211C12.2062 29.6071 11.4653 28.8662 10.5514 28.8662C9.63739 28.8662 8.89648 29.6071 8.89648 30.5211C8.89648 31.435 9.63739 32.176 10.5514 32.176Z" stroke="white" stroke-width="3" stroke-miterlimit="10"/>
<path d="M50.4488 32.176C51.3628 32.176 52.1037 31.435 52.1037 30.5211C52.1037 29.6071 51.3628 28.8662 50.4488 28.8662C49.5349 28.8662 48.7939 29.6071 48.7939 30.5211C48.7939 31.435 49.5349 32.176 50.4488 32.176Z" stroke="white" stroke-width="3" stroke-miterlimit="10"/>
<path d="M13.2139 42.1505C14.1279 42.1505 14.8688 41.4096 14.8688 40.4957C14.8688 39.5817 14.1279 38.8408 13.2139 38.8408C12.3 38.8408 11.5591 39.5817 11.5591 40.4957C11.5591 41.4096 12.3 42.1505 13.2139 42.1505Z" stroke="white" stroke-width="3" stroke-miterlimit="10"/>
<path d="M47.7857 22.2018C48.6997 22.2018 49.4406 21.4609 49.4406 20.547C49.4406 19.633 48.6997 18.8921 47.7857 18.8921C46.8718 18.8921 46.1309 19.633 46.1309 20.547C46.1309 21.4609 46.8718 22.2018 47.7857 22.2018Z" stroke="white" stroke-width="3" stroke-miterlimit="10"/>
<path d="M40.5499 14.9357C41.4638 14.9357 42.2048 14.1948 42.2048 13.2808C42.2048 12.3669 41.4638 11.626 40.5499 11.626C39.6359 11.626 38.895 12.3669 38.895 13.2808C38.895 14.1948 39.6359 14.9357 40.5499 14.9357Z" stroke="white" stroke-width="3" stroke-miterlimit="10"/>
<path d="M20.4503 49.4172C21.3642 49.4172 22.1051 48.6763 22.1051 47.7623C22.1051 46.8483 21.3642 46.1074 20.4503 46.1074C19.5363 46.1074 18.7954 46.8483 18.7954 47.7623C18.7954 48.6763 19.5363 49.4172 20.4503 49.4172Z" stroke="white" stroke-width="3" stroke-miterlimit="10"/>
<path d="M30.5753 12.2277C31.4892 12.2277 32.2301 11.4868 32.2301 10.5728C32.2301 9.65888 31.4892 8.91797 30.5753 8.91797C29.6613 8.91797 28.9204 9.65888 28.9204 10.5728C28.9204 11.4868 29.6613 12.2277 30.5753 12.2277Z" stroke="white" stroke-width="3" stroke-miterlimit="10"/>
<path d="M30.4098 52.1398C31.3237 52.1398 32.0646 51.3989 32.0646 50.4849C32.0646 49.571 31.3237 48.8301 30.4098 48.8301C29.4958 48.8301 28.7549 49.571 28.7549 50.4849C28.7549 51.3989 29.4958 52.1398 30.4098 52.1398Z" stroke="white" stroke-width="3" stroke-miterlimit="10"/>
</svg>
