<svg width="2154" height="860" viewBox="0 0 2154 860" fill="none" xmlns="http://www.w3.org/2000/svg">
<g opacity="0.1">
<path d="M102 206.131C149.886 241.921 283.5 311.54 434.861 303.695C624.062 293.888 735.277 205.128 891.219 203.715C1047.16 202.301 1129.25 323.83 1298.91 320.99C1468.57 318.15 1625.83 224.602 1787.81 270.145C1949.79 315.688 2025.25 354.721 2152.9 321.707" stroke="#2C4362"/>
<path d="M3.63302 483.312C72.2866 478.994 190.343 477.001 318.601 480.878C448.315 484.824 584.598 494.218 693.334 523.9C956.254 597.296 1046.34 649.235 1287.42 646.49C1528.5 643.745 1531.18 590.763 1742.52 644.683C1912.75 688.289 2040.39 793.395 2087.5 839.134" stroke="#F7F8F9" stroke-width="2.92308"/>
<path d="M7.2915 472.28C74.7819 469.473 192.849 470.376 322.065 473.873C454.193 477.497 590.197 482.902 701.006 511.518C960.17 581.512 1049.36 636.156 1287.52 633.134C1525.67 630.113 1534.8 576.131 1744.16 629.508C1913.98 673.14 2040.03 775.388 2090.93 818.294" stroke="#EFF1F3" stroke-width="2.84615"/>
<path d="M10.9755 461.258C77.3296 459.972 195.459 463.771 325.63 466.881C460.171 470.164 595.836 471.581 708.703 499.116C964.066 565.739 1052.41 623.098 1287.65 619.823C1522.88 616.547 1538.43 561.513 1745.82 614.364C1915.24 658.028 2039.65 757.433 2094.29 797.477" stroke="#E7E9ED" stroke-width="2.76923"/>
<path d="M14.6852 450.247C79.9301 450.49 198.172 457.184 329.296 459.899C466.25 462.822 601.514 460.255 716.425 486.694C967.94 549.979 1055.49 610.061 1287.8 606.555C1520.12 603.048 1542.08 546.909 1747.49 599.252C1916.52 642.951 2039.24 739.53 2097.58 776.684" stroke="#DFE2E7" stroke-width="2.69231"/>
<path d="M18.4209 439.248C82.5837 441.029 200.99 450.618 333.065 452.931C472.429 455.474 607.232 448.926 724.173 474.253C971.794 534.233 1058.59 597.046 1287.99 593.332C1517.4 589.618 1545.75 532.322 1749.18 584.174C1917.82 627.913 2038.82 721.682 2100.81 755.918" stroke="#D6DBE1" stroke-width="2.61538"/>
<path d="M22.1822 428.261C85.2902 431.588 203.912 444.071 336.935 445.974C478.708 448.119 612.989 437.594 731.945 461.793C975.626 518.501 1061.71 584.054 1288.21 580.155C1514.71 576.256 1549.43 517.749 1750.89 569.128C1919.14 612.912 2038.37 703.888 2103.97 735.179" stroke="#CED4DB" stroke-width="2.53846"/>
<path d="M25.9694 417.285C88.05 422.166 206.938 437.541 340.907 439.027C485.087 440.755 618.786 426.256 739.743 449.313C979.438 502.783 1064.87 571.082 1288.46 567.021C1512.06 562.961 1553.13 503.191 1752.61 554.114C1920.49 597.947 2037.91 686.147 2107.07 714.465" stroke="#C6CCD5" stroke-width="2.46154"/>
<path d="M29.7826 406.319C90.8632 412.764 210.069 431.029 344.982 432.09C491.565 433.382 624.622 414.914 747.564 436.814C983.229 487.079 1068.05 558.131 1288.75 553.932C1509.44 549.732 1556.84 488.648 1754.34 539.132C1921.85 583.018 2037.42 668.461 2110.1 693.778" stroke="#BEC5CF" stroke-width="2.38462"/>
<path d="M33.6219 395.363C93.7302 403.379 213.304 424.532 349.158 425.161C498.143 425.998 630.496 403.565 755.41 424.293C987 471.386 1071.26 545.2 1289.06 540.884C1506.86 536.569 1560.57 474.117 1756.1 524.18C1923.24 568.124 2036.92 650.826 2113.07 673.116" stroke="#B6BEC9" stroke-width="2.30769"/>
<path d="M37.4874 384.419C96.651 394.014 216.644 418.052 353.437 418.242C504.821 418.604 636.41 392.212 763.279 411.753C990.751 455.709 1074.49 532.29 1289.41 527.881C1504.32 523.472 1564.32 459.601 1757.87 509.26C1924.65 553.267 2036.4 633.245 2115.97 652.483" stroke="#AEB7C3" stroke-width="2.23077"/>
<path d="M41.3791 373.483C99.6258 384.665 220.09 411.585 357.817 411.329C511.598 411.197 642.363 380.852 771.172 399.19C994.482 440.044 1077.76 519.398 1289.79 514.919C1501.82 510.44 1568.09 445.097 1759.65 494.37C1926.09 538.443 2035.86 615.717 2118.81 631.874" stroke="#A6B0BC" stroke-width="2.15385"/>
<path d="M45.2971 362.56C102.655 375.336 223.64 405.136 362.301 404.425C518.473 403.781 648.355 369.488 779.088 386.61C998.192 424.394 1081.05 506.529 1290.21 502.002C1499.36 497.475 1571.88 430.61 1761.46 479.513C1927.55 523.656 2035.31 598.244 2121.58 611.295" stroke="#9EA8B6" stroke-width="2.07692"/>
<path d="M49.2419 351.646C105.738 366.023 227.297 398.7 366.886 397.527C525.448 396.351 654.385 358.116 787.027 374.007C1001.88 408.758 1084.37 493.678 1290.66 489.126C1496.94 484.574 1575.68 416.134 1763.28 464.685C1929.03 508.904 2034.74 580.823 2124.29 590.742" stroke="#95A1B0" stroke-width="2"/>
<path d="M53.2128 340.741C108.876 356.727 231.058 392.276 371.574 390.634C532.522 388.908 660.454 346.738 794.988 361.382C1005.55 393.135 1087.72 480.846 1291.14 476.292C1494.56 471.737 1579.5 401.671 1765.12 449.888C1930.54 494.185 2034.16 563.456 2126.94 570.217" stroke="#8D9AAA" stroke-width="1.92308"/>
<path d="M57.2103 329.846C112.069 347.448 234.925 385.866 376.364 383.747C539.694 381.452 666.561 335.353 802.972 348.737C1009.21 377.526 1091.1 468.034 1291.66 463.5C1492.23 458.966 1583.34 387.222 1766.98 435.121C1932.08 479.501 2033.56 546.142 2129.52 549.721" stroke="#8593A4" stroke-width="1.84615"/>
<path d="M61.2345 318.961C115.317 338.186 238.897 379.468 381.257 376.865C546.964 373.981 672.706 323.962 810.978 336.07C1012.84 361.932 1094.5 455.241 1292.22 450.749C1489.93 446.258 1587.2 372.785 1768.86 420.384C1933.64 464.851 2032.95 528.881 2132.04 529.252" stroke="#7D8C9E" stroke-width="1.76923"/>
<path d="M65.2854 308.086C118.619 328.94 242.976 373.081 386.252 369.987C554.332 366.497 678.889 312.563 819.005 323.382C1016.45 346.352 1097.94 442.467 1292.81 438.041C1487.68 433.614 1591.07 358.361 1770.76 405.678C1935.23 450.235 2032.32 511.674 2134.5 508.813" stroke="#758498" stroke-width="1.69231"/>
<path d="M69.363 297.218C121.977 319.708 247.16 366.704 391.35 363.111C561.798 358.994 685.111 301.155 827.054 310.671C1020.04 330.784 1101.4 429.71 1293.44 425.371C1485.48 421.032 1594.97 343.948 1772.68 390.998C1936.84 435.651 2031.68 494.518 2136.89 488.4" stroke="#6D7D92" stroke-width="1.61538"/>
<path d="M73.4649 286.345C125.387 310.477 251.448 360.322 396.547 356.224C569.359 351.461 691.368 289.725 835.121 297.923C1023.62 315.216 1104.9 416.956 1294.11 412.727C1483.31 408.498 1598.88 329.532 1774.61 376.334C1938.48 421.085 2031.03 477.401 2139.22 468.003" stroke="#65768C" stroke-width="1.53846"/>
<path d="M77.5709 275.343C128.831 301.123 255.819 353.813 401.824 349.201C576.994 343.774 697.639 278.149 843.186 285.015C1027.15 299.525 1108.4 404.083 1294.79 399.986C1481.17 395.889 1602.78 314.991 1776.55 361.562C1940.12 406.415 2030.34 460.2 2141.47 447.496" stroke="#5D6F86" stroke-width="1.46154"/>
<path d="M81.6737 264.188C132.299 291.623 260.265 347.15 407.173 342.017C584.697 335.908 703.918 266.402 851.242 271.923C1030.63 283.686 1111.89 391.066 1295.47 387.123C1479.05 383.18 1606.67 300.299 1778.47 346.656C1941.76 391.615 2029.62 442.889 2143.62 426.858" stroke="#556780" stroke-width="1.38462"/>
<path d="M85.7692 252.88C135.789 281.975 264.784 340.335 412.591 334.674C592.462 327.863 710.2 254.486 859.283 258.648C1034.06 267.701 1115.39 377.905 1296.16 374.139C1476.94 370.373 1610.55 285.458 1780.38 331.618C1943.39 376.687 2028.85 425.47 2145.68 406.088" stroke="#4C607A" stroke-width="1.30769"/>
<path d="M89.8532 241.42C139.296 272.181 269.371 333.366 418.072 327.17C600.285 319.637 716.481 242.4 867.305 245.188C1037.43 251.569 1118.87 364.6 1296.86 361.033C1474.84 357.465 1614.41 270.467 1782.27 316.447C1945.02 361.629 2028.03 407.943 2147.64 385.186" stroke="#445974" stroke-width="1.23077"/>
<path d="M93.9221 229.807C142.817 262.239 274.021 326.242 423.613 319.504C608.162 311.232 722.757 230.143 875.305 231.544C1040.74 235.289 1122.35 351.151 1297.55 347.804C1472.75 344.457 1618.24 255.325 1784.14 301.143C1946.63 346.442 2027.16 390.308 2149.5 364.154" stroke="#3C526E" stroke-width="1.15385"/>
<path d="M97.9722 218.043C146.349 252.152 278.732 318.967 429.21 311.678C616.089 302.648 729.023 217.719 883.277 217.719C1043.98 218.866 1125.81 337.561 1298.23 334.456C1470.66 331.352 1622.05 240.036 1785.99 285.708C1948.22 331.128 2026.23 372.566 2151.25 342.993" stroke="#344B68" stroke-width="1.07692"/>
</g>
</svg>
