<svg width="1920" height="762" viewBox="0 0 1920 762" fill="none" xmlns="http://www.w3.org/2000/svg">
<g opacity="0.1">
<path d="M-84 325.126C49.8601 335.414 368.681 342.409 573.084 288.092C828.588 220.195 915.821 176.68 1149.65 178.84C1383.47 181 1379.86 226.985 1584.26 178.84C1747.78 140.324 1871.6 44.8983 1913.06 2" stroke="white" stroke-width="3"/>
<path d="M13.7448 579.838C59.6335 548.209 187.673 486.685 332.719 493.619C514.028 502.285 620.603 580.724 770.04 581.973C919.476 583.222 998.139 475.825 1160.72 478.335C1323.3 480.844 1474 563.515 1629.23 523.267C1784.45 483.02 1856.76 448.526 1979.08 477.701" stroke="#2C4362"/>
<path d="M-80.5188 334.887C-14.7292 338.703 98.4023 340.464 221.31 337.039C345.613 333.551 476.21 325.249 580.41 299.018C832.361 234.157 918.692 188.258 1149.71 190.683C1380.73 193.109 1383.31 239.93 1585.82 192.28C1748.95 153.745 1871.27 60.8601 1916.41 20.4399" stroke="#F7F8F9" stroke-width="2.92308"/>
<path d="M-77.0122 344.637C-12.3374 347.118 100.804 346.319 224.629 343.229C351.246 340.027 481.576 335.25 587.762 309.961C836.115 248.107 921.588 199.817 1149.81 202.487C1378.03 205.157 1386.77 252.862 1587.4 205.692C1750.14 167.133 1870.93 76.7745 1919.7 38.8579" stroke="#EFF1F3" stroke-width="2.84615"/>
<path d="M-73.4821 354.377C-9.89616 355.514 103.305 352.156 228.045 349.408C356.975 346.507 486.979 345.255 595.138 320.921C839.848 262.045 924.508 211.356 1149.93 214.25C1375.35 217.145 1390.25 265.78 1588.99 219.074C1751.34 180.488 1870.56 92.6415 1922.92 57.2537" stroke="#E7E9ED" stroke-width="2.76923"/>
<path d="M-69.9274 364.107C-7.40444 363.892 105.905 357.976 231.559 355.577C362.799 352.994 492.42 355.262 602.538 331.898C843.56 275.972 927.453 222.876 1150.08 225.974C1372.71 229.073 1393.75 278.684 1590.59 232.428C1752.57 193.81 1870.17 108.461 1926.08 75.6274" stroke="#DFE2E7" stroke-width="2.69231"/>
<path d="M-66.3476 373.827C-4.86152 372.253 108.605 363.779 235.17 361.735C368.721 359.487 497.9 365.274 609.962 342.892C847.253 289.887 930.425 234.377 1150.26 237.659C1370.1 240.941 1397.26 291.576 1592.21 245.753C1753.81 207.1 1869.76 124.234 1929.17 93.9786" stroke="#D6DBE1" stroke-width="2.61538"/>
<path d="M-62.743 383.537C-2.2677 380.596 111.405 369.565 238.879 367.883C374.738 365.987 503.417 375.289 617.411 353.903C850.926 303.789 933.422 245.859 1150.47 249.305C1367.52 252.75 1400.79 304.454 1593.85 259.05C1755.08 220.357 1869.34 139.959 1932.2 112.307" stroke="#CED4DB" stroke-width="2.53846"/>
<path d="M-59.114 393.237C0.376679 388.923 114.305 375.336 242.686 374.023C380.85 372.496 508.972 385.309 624.882 364.932C854.578 317.68 936.444 257.323 1150.71 260.912C1364.98 264.5 1404.33 317.32 1595.49 272.318C1756.37 233.582 1868.89 155.637 1935.17 130.612" stroke="#C6CCD5" stroke-width="2.46154"/>
<path d="M-55.4602 402.928C3.07233 397.232 117.305 381.092 246.59 380.154C387.058 379.012 514.564 395.333 632.377 375.979C858.211 331.559 939.492 268.768 1150.98 272.48C1362.47 276.191 1407.89 330.173 1597.16 285.559C1757.68 246.775 1868.43 171.268 1938.08 148.894" stroke="#BEC5CF" stroke-width="2.38462"/>
<path d="M-51.7808 412.609C5.81991 405.525 120.406 386.833 250.592 386.276C393.362 385.537 520.194 405.361 639.896 387.043C861.825 345.426 942.567 280.196 1151.28 284.009C1360 287.823 1411.47 343.013 1598.84 298.772C1759.01 259.937 1867.94 186.852 1940.92 167.153" stroke="#B6BEC9" stroke-width="2.30769"/>
<path d="M-48.0764 422.281C8.6191 413.802 123.607 392.559 254.692 392.391C399.761 392.072 525.861 415.394 647.437 398.126C865.42 359.281 945.669 291.605 1151.62 295.501C1357.57 299.397 1415.07 355.841 1600.53 311.957C1760.36 273.067 1867.45 202.388 1943.7 185.388" stroke="#AEB7C3" stroke-width="2.23077"/>
<path d="M-44.3473 431.944C11.4696 422.063 126.908 398.273 258.89 398.5C406.255 398.616 531.565 425.432 655.001 409.226C868.994 373.124 948.796 302.996 1151.98 306.955C1355.17 310.913 1418.68 368.657 1602.25 325.114C1761.74 286.166 1866.93 217.877 1946.42 203.599" stroke="#A6B0BC" stroke-width="2.15385"/>
<path d="M-40.5929 441.598C14.372 430.308 130.31 403.973 263.186 404.602C412.844 405.171 537.307 435.476 662.586 420.345C872.55 386.954 951.951 314.37 1152.38 318.371C1352.81 322.371 1422.3 381.462 1603.98 338.245C1763.14 299.234 1866.4 233.319 1949.08 221.786" stroke="#9EA8B6" stroke-width="2.07692"/>
<path d="M-36.8123 451.244C17.3275 438.538 133.814 409.661 267.581 410.698C419.528 411.736 543.086 445.525 670.194 431.483C876.087 400.772 955.134 325.726 1152.81 329.749C1350.49 333.772 1425.95 394.254 1605.72 351.348C1764.56 312.272 1865.86 248.714 1951.67 239.949" stroke="#95A1B0" stroke-width="2"/>
<path d="M-33.0072 460.88C20.3343 446.753 137.419 415.337 272.073 416.788C426.306 418.314 548.901 455.58 677.824 442.639C879.605 414.578 958.343 337.066 1153.28 341.091C1348.21 345.116 1429.61 407.035 1607.49 364.425C1766.01 325.278 1865.3 264.062 1954.21 258.087" stroke="#8D9AAA" stroke-width="1.92308"/>
<path d="M-29.1762 470.508C23.394 454.953 141.124 421.002 276.664 422.875C433.179 424.903 554.754 465.641 685.475 453.814C883.105 428.372 961.58 348.388 1153.78 352.395C1345.98 356.402 1433.29 419.804 1609.27 377.474C1767.48 338.255 1864.72 279.363 1956.68 276.2" stroke="#8593A4" stroke-width="1.84615"/>
<path d="M-25.3197 480.128C26.5063 463.138 144.932 426.657 281.352 428.957C440.146 431.505 560.643 475.708 693.146 465.008C886.585 442.153 964.844 359.694 1154.31 363.663C1343.78 367.633 1436.98 432.562 1611.07 390.498C1768.97 351.202 1864.14 294.617 1959.1 294.289" stroke="#7D8C9E" stroke-width="1.76923"/>
<path d="M-21.4381 489.739C29.6708 471.309 148.84 432.301 286.139 435.035C447.207 438.12 566.568 485.782 700.839 476.221C890.047 455.922 968.137 370.983 1154.88 374.895C1341.62 378.807 1440.7 445.309 1612.89 403.495C1770.5 364.118 1863.54 309.823 1961.45 312.352" stroke="#758498" stroke-width="1.69231"/>
<path d="M-17.5308 499.342C32.8882 479.467 152.849 437.935 291.023 441.11C454.361 444.749 572.53 495.862 708.551 487.453C893.49 469.678 971.457 382.256 1155.48 386.09C1339.51 389.925 1444.43 458.045 1614.73 416.466C1772.04 377.006 1862.93 324.983 1963.75 330.39" stroke="#6D7D92" stroke-width="1.61538"/>
<path d="M-13.6003 508.951C36.1561 487.625 156.957 443.576 296.004 447.198C461.606 451.406 578.525 505.964 716.282 498.719C896.913 483.437 974.803 393.527 1156.12 397.265C1337.43 401.002 1448.17 470.786 1616.58 429.426C1773.61 389.878 1862.3 340.111 1965.98 348.416" stroke="#65768C" stroke-width="1.53846"/>
<path d="M-9.66481 518.674C39.4564 495.891 161.147 449.328 301.061 453.404C468.924 458.2 584.536 516.194 724.011 510.126C900.296 497.303 978.157 404.903 1156.77 408.524C1335.38 412.145 1451.92 483.636 1618.43 442.48C1775.18 402.843 1861.64 355.312 1968.13 366.538" stroke="#5D6F86" stroke-width="1.46154"/>
<path d="M-5.73352 528.532C42.7799 504.287 165.408 455.216 306.187 459.752C476.305 465.151 590.553 526.575 731.73 521.696C903.632 511.3 981.509 416.407 1157.43 419.891C1333.35 423.375 1455.65 496.619 1620.28 455.652C1776.76 415.921 1860.95 370.609 1970.2 384.777" stroke="#556780" stroke-width="1.38462"/>
<path d="M-1.80929 538.524C46.1239 512.812 169.738 461.239 311.378 466.241C483.745 472.261 596.572 537.105 739.435 533.428C906.917 525.427 984.857 428.037 1158.09 431.365C1331.33 434.694 1459.36 509.735 1622.11 468.942C1778.32 429.114 1860.21 386.003 1972.17 403.132" stroke="#4C607A" stroke-width="1.30769"/>
<path d="M2.10507 548.652C49.4856 521.468 174.133 467.398 316.631 472.873C491.243 479.53 602.592 547.786 747.124 545.322C910.148 539.683 988.199 439.795 1158.76 442.948C1329.31 446.101 1463.06 522.983 1623.92 482.349C1779.88 442.421 1859.42 401.492 1974.05 421.603" stroke="#445974" stroke-width="1.23077"/>
<path d="M6.00394 558.915C52.8595 530.254 178.59 473.693 321.941 479.648C498.791 486.957 608.605 558.617 754.789 557.379C913.32 554.069 991.528 451.68 1159.42 454.638C1327.31 457.596 1466.74 536.363 1625.71 495.873C1781.42 455.842 1858.59 417.077 1975.83 440.189" stroke="#3C526E" stroke-width="1.15385"/>
<path d="M9.88478 569.31C56.243 539.168 183.104 480.122 327.305 486.563C506.387 494.543 614.61 569.597 762.429 569.597C916.43 568.583 994.842 463.69 1160.07 466.434C1325.3 469.177 1470.38 549.875 1627.48 509.513C1782.95 469.375 1857.7 432.755 1977.51 458.889" stroke="#344B68" stroke-width="1.07692"/>
</g>
</svg>
