<svg width="1920" height="518" viewBox="0 0 1920 518" fill="none" xmlns="http://www.w3.org/2000/svg">
<g opacity="0.44">
<path d="M-35.7818 713.057L3.15234 669.935C41.7454 625.86 120.057 537.402 193.833 439.721C267.608 342.04 338.758 233.565 441.522 216.904C543.945 199.29 680.232 272.872 782.996 256.212C885.419 238.597 956.909 131.076 1063.08 123.947C1169.26 116.818 1312.71 210.417 1426.38 224.258C1539.72 237.146 1625.53 169.658 1698.97 71.0232C1772.74 -26.6582 1836.73 -155.15 1917.67 -232.814C1998.61 -310.479 2098.75 -337.933 2148.25 -351.506" stroke="url(#paint0_linear_615_478)" stroke-width="2"/>
<path d="M-155.281 630.337C-155.281 630.337 -24.5298 137.478 229.569 1.30108C368.387 -73.0945 549.007 -83.4137 651.771 -100.075C754.194 -117.689 851.799 -117.484 942.532 -166.252C1080.97 -240.663 1133.65 -284.697 1217.77 -353.042C1332.54 -446.296 1715.9 -451.11 1833.9 -508.876C1953.13 -567.242 2050.69 -528.546 2179.46 -662.624" stroke="url(#paint1_linear_615_478)" stroke-width="2"/>
<path d="M-41.4725 709.117C-4.39235 668.049 -2.83579 662.182 0.233271 655.504C40.0577 606.85 119.221 515.115 195.534 418.843C269.102 324.042 340.666 219.724 442.125 203.192C543.259 185.752 676.43 255.509 776.747 239.245C879.17 221.631 951.904 119.239 1057.34 110.127C1161.76 101.566 1300.65 189.298 1410.87 201.106C1520.76 212.006 1604.11 146.394 1676.05 50.8292C1749.05 -44.421 1815.92 -167.961 1898.95 -242.884C1981.99 -317.806 2083.32 -344.699 2133.28 -359.001C2186.11 -374.706 2190.75 -372.864 2196.89 -379.248" stroke="url(#paint2_linear_615_478)" stroke-width="2"/>
<path d="M-47.1628 705.179C-11.9367 666.164 -8.82353 654.429 -2.68542 641.073C38.3703 587.84 118.386 492.83 197.236 397.967C270.596 306.046 342.575 205.885 442.728 189.481C542.573 172.215 672.628 238.147 770.498 222.28C872.921 204.665 946.899 107.404 1051.6 96.3088C1154.26 86.3153 1288.59 168.181 1395.35 177.955C1501.79 186.868 1582.69 123.131 1653.14 30.6361C1725.36 -62.1829 1795.11 -180.772 1880.24 -252.953C1965.37 -325.133 2067.9 -351.463 2118.31 -366.494C2174.46 -384.333 2183.75 -380.647 2196.02 -393.417" stroke="url(#paint3_linear_615_478)" stroke-width="2"/>
<path d="M-52.8532 701.239C-19.4811 664.278 -14.8114 646.676 -5.60423 626.642C36.6827 568.83 117.551 470.543 198.938 377.089C272.09 288.048 344.484 192.044 443.332 175.769C541.887 158.677 668.826 220.784 764.249 205.313C866.672 187.699 941.894 95.567 1045.86 82.4893C1146.76 71.0636 1276.54 147.062 1379.83 154.803C1482.83 161.728 1561.27 99.8678 1630.23 10.4421C1701.66 -79.9458 1774.3 -193.584 1861.52 -263.022C1948.74 -332.461 2052.48 -358.228 2103.34 -373.988C2162.81 -393.96 2176.75 -388.432 2195.14 -407.586" stroke="url(#paint4_linear_615_478)" stroke-width="2"/>
<path d="M-58.5436 697.301C-27.0255 662.393 -20.7992 638.923 -8.52299 612.212C34.9953 549.82 116.716 448.257 200.64 356.213C273.584 270.052 346.392 178.205 443.935 162.058C541.202 145.14 665.024 203.422 758.001 188.348C860.424 170.734 936.888 83.7313 1040.12 68.6708C1139.26 55.8129 1264.48 125.944 1364.31 131.653C1463.87 136.59 1539.85 76.6051 1607.31 -9.75091C1677.97 -97.7077 1753.49 -206.395 1842.8 -273.091C1932.12 -339.787 2037.06 -364.992 2088.38 -381.481C2151.16 -403.586 2169.74 -396.216 2194.27 -421.754" stroke="url(#paint5_linear_615_478)" stroke-width="2"/>
<path d="M-64.2343 693.361C-34.5701 660.507 -26.7873 631.17 -11.442 597.78C33.3075 530.81 115.881 425.97 202.341 335.335C275.077 252.054 348.301 164.364 444.538 148.346C540.516 131.602 661.222 186.059 751.752 171.381C854.175 153.767 931.883 71.8947 1034.38 54.8514C1131.76 40.5613 1252.43 104.825 1348.8 108.501C1444.91 111.45 1518.43 53.3415 1584.4 -29.9449C1654.27 -115.471 1732.67 -219.206 1824.09 -283.161C1915.5 -347.115 2021.64 -371.757 2073.41 -388.976C2139.51 -413.213 2162.74 -404 2193.4 -435.924" stroke="url(#paint6_linear_615_478)" stroke-width="2"/>
<path d="M-69.9246 689.422C-42.1145 658.621 -32.7751 623.417 -14.3608 583.349C31.62 511.8 115.046 403.684 204.043 314.458C276.571 234.058 350.209 150.524 445.141 134.635C539.83 118.064 657.42 168.696 745.503 154.415C847.926 136.801 926.878 60.0586 1028.64 41.0324C1124.26 25.3102 1240.37 83.7067 1333.28 85.3493C1425.94 86.3111 1497.01 30.0783 1561.48 -50.1385C1630.58 -133.233 1711.86 -232.018 1805.37 -293.23C1898.88 -354.442 2006.22 -378.522 2058.44 -396.469C2127.86 -422.84 2155.74 -411.784 2192.53 -450.092" stroke="url(#paint7_linear_615_478)" stroke-width="2"/>
<path d="M-75.615 685.483C-49.6589 656.736 -38.763 615.664 -17.2796 568.918C29.9326 492.79 114.211 381.398 205.745 293.581C278.065 216.061 352.118 136.684 445.745 120.923C539.144 104.527 653.618 151.333 739.254 137.449C841.677 119.835 921.872 48.2225 1022.9 27.2135C1116.76 10.0591 1228.31 62.5884 1317.76 62.198C1406.98 61.1721 1475.59 6.8152 1538.57 -70.3319C1606.88 -150.995 1691.05 -244.829 1786.66 -303.299C1882.26 -361.769 1990.8 -385.287 2043.47 -403.963C2116.21 -432.467 2148.73 -419.568 2191.66 -464.261" stroke="url(#paint8_linear_615_478)" stroke-width="2"/>
<path d="M-81.3054 681.544C-57.2033 654.85 -44.7508 607.911 -20.1983 554.488C28.2451 473.78 113.376 359.112 207.447 272.704C279.559 198.064 354.026 122.845 446.348 107.212C538.458 90.9891 649.816 133.971 733.005 120.483C835.428 102.869 916.867 36.3864 1017.16 13.3946C1109.26 -5.19208 1216.26 41.4701 1302.24 39.0466C1388.02 36.0331 1454.17 -16.4479 1515.65 -90.5254C1583.19 -168.758 1670.24 -257.64 1767.94 -313.368C1865.64 -369.096 1975.38 -392.051 2028.5 -411.457C2104.57 -442.094 2141.73 -427.352 2190.79 -478.43" stroke="url(#paint9_linear_615_478)" stroke-width="2"/>
<path d="M-86.996 677.605C-64.748 652.964 -50.7389 600.158 -23.1174 540.056C26.5573 454.769 112.541 336.825 209.148 251.826C281.052 180.066 355.935 109.004 446.951 93.4999C537.772 77.451 646.013 116.608 726.756 103.517C829.179 85.9028 911.862 24.5498 1011.42 -0.424912C1101.75 -20.4438 1204.2 20.3512 1286.73 15.8947C1369.06 10.8936 1432.75 -39.7117 1492.74 -110.72C1559.49 -186.521 1649.43 -270.452 1749.22 -323.438C1849.02 -376.423 1959.96 -398.817 2013.53 -418.951C2092.92 -451.721 2134.73 -435.137 2189.92 -492.599" stroke="url(#paint10_linear_615_478)" stroke-width="2"/>
<path d="M-92.6864 673.667C-72.2923 651.079 -56.7267 592.405 -26.0361 525.626C24.8699 435.76 111.706 314.539 210.85 230.95C282.546 162.07 357.843 95.1647 447.554 79.789C537.087 63.9141 642.211 99.2455 720.508 86.5515C822.93 68.9373 906.856 12.7142 1005.68 -14.2433C1094.25 -35.6944 1192.15 -0.766557 1271.21 -7.25609C1350.09 -14.2449 1411.33 -62.9742 1469.82 -130.912C1535.8 -204.282 1628.62 -283.262 1730.51 -333.506C1832.4 -383.75 1944.53 -405.581 1998.56 -426.444C2081.27 -461.347 2127.72 -442.921 2189.04 -506.767" stroke="url(#paint11_linear_615_478)" stroke-width="2"/>
<path d="M-98.3768 669.728C-79.8367 649.193 -62.7145 584.652 -28.9549 511.195C23.1824 416.749 110.871 292.253 212.552 210.072C284.04 144.073 359.752 81.3247 448.158 66.0775C536.401 50.3765 638.409 81.8828 714.259 69.5855C816.682 51.9714 901.851 0.878018 999.937 -28.0624C1086.75 -50.9456 1180.09 -21.8849 1255.69 -30.4075C1331.13 -39.384 1389.91 -86.2374 1446.91 -151.106C1512.1 -222.045 1607.8 -296.074 1711.79 -343.575C1815.77 -391.077 1929.11 -412.346 1983.59 -433.938C2069.62 -470.974 2120.72 -450.705 2188.17 -520.936" stroke="url(#paint12_linear_615_478)" stroke-width="2"/>
<path d="M-104.067 665.789C-87.3811 647.308 -68.7023 576.899 -31.8736 496.764C21.4949 397.739 110.036 269.967 214.253 189.195C285.534 126.076 361.661 67.4847 448.761 52.3661C535.715 36.839 634.607 64.5202 708.01 52.6195C810.433 35.0054 896.846 -10.9581 994.197 -41.8813C1079.25 -66.1967 1168.03 -43.0033 1240.17 -53.5589C1312.17 -64.523 1368.49 -109.501 1424 -171.3C1488.41 -239.807 1586.99 -308.885 1693.07 -353.644C1799.15 -398.404 1913.69 -419.11 1968.62 -441.432C2057.97 -480.601 2113.72 -458.489 2187.3 -535.105" stroke="url(#paint13_linear_615_478)" stroke-width="2"/>
<path d="M-109.758 661.85C-94.9258 645.422 -74.6904 569.147 -34.7927 482.333C19.8072 378.729 109.2 247.68 215.955 168.318C287.028 108.079 363.569 53.6448 449.364 38.6547C535.029 23.3015 630.805 47.1575 701.761 35.6536C804.184 18.0395 891.841 -22.7942 988.456 -55.7002C1071.75 -81.4478 1155.98 -64.1216 1224.66 -76.7102C1293.21 -89.662 1347.07 -132.764 1401.08 -191.493C1464.71 -257.569 1566.18 -321.696 1674.36 -363.714C1782.53 -405.731 1898.27 -425.875 1953.65 -448.926C2046.32 -490.227 2106.72 -466.273 2186.43 -549.274" stroke="url(#paint14_linear_615_478)" stroke-width="2"/>
<path d="M-115.448 657.91C-102.47 643.536 -80.6783 561.393 -37.7115 467.902C18.1197 359.719 108.365 225.393 217.657 147.441C288.522 90.0817 365.478 39.8043 449.967 24.9427C534.343 9.76347 627.003 29.7944 695.512 18.6871C797.935 1.07298 886.835 -34.6308 982.715 -69.5197C1064.25 -96.6995 1143.92 -85.2404 1209.14 -99.8621C1274.24 -114.802 1325.65 -156.027 1378.17 -211.687C1441.02 -275.332 1545.37 -334.508 1655.64 -373.783C1765.91 -413.059 1882.85 -432.64 1938.69 -456.42C2034.67 -499.854 2099.71 -474.058 2185.56 -563.443" stroke="url(#paint15_linear_615_478)" stroke-width="2"/>
<path d="M-121.139 653.972C-110.015 641.651 -86.6661 553.641 -40.6302 453.471C16.4323 340.709 107.53 203.108 219.359 126.564C290.015 72.0853 367.386 25.9649 450.571 11.2319C533.658 -3.77351 623.201 12.4323 689.264 1.72167C791.686 -15.8924 881.83 -46.4663 976.975 -83.3381C1056.75 -111.95 1131.87 -106.358 1193.62 -123.013C1255.28 -139.94 1304.23 -179.29 1355.25 -231.88C1417.32 -293.094 1524.56 -347.318 1636.92 -383.852C1749.29 -420.385 1867.43 -439.404 1923.72 -463.913C2023.02 -509.481 2092.71 -481.841 2184.69 -577.611" stroke="url(#paint16_linear_615_478)" stroke-width="2"/>
<path d="M-126.829 650.032C-117.559 639.765 -92.6539 545.887 -43.549 439.04C14.7447 321.699 106.695 180.821 221.06 105.687C291.509 54.0879 369.295 12.1244 451.174 -2.48009C532.972 -17.3115 619.399 -4.93086 683.015 -15.2448C785.438 -32.8589 876.825 -58.303 971.234 -97.1575C1049.25 -127.202 1119.81 -127.477 1178.1 -146.165C1236.32 -165.08 1282.81 -202.554 1332.34 -252.074C1393.63 -310.857 1503.75 -360.13 1618.21 -393.921C1732.67 -427.713 1852.01 -446.17 1908.75 -471.407C2011.37 -519.108 2085.71 -489.626 2183.82 -591.78" stroke="url(#paint17_linear_615_478)" stroke-width="2"/>
<path d="M-132.519 646.093C-125.103 637.88 -98.6418 538.134 -46.4678 424.609C13.0573 302.689 105.86 158.535 222.762 84.8094C293.003 36.0909 371.203 -1.71558 451.777 -16.1915C532.286 -30.8491 615.597 -22.2935 676.766 -32.2108C779.189 -49.8249 871.82 -70.1391 965.494 -110.977C1041.75 -142.453 1107.75 -148.595 1162.59 -169.316C1217.36 -190.219 1261.39 -225.817 1309.42 -272.268C1369.93 -328.62 1482.93 -372.941 1599.49 -403.991C1716.05 -435.04 1836.59 -452.934 1893.78 -478.901C1999.73 -528.735 2078.7 -497.41 2182.94 -605.949" stroke="url(#paint18_linear_615_478)" stroke-width="2"/>
<path d="M-138.21 642.154C-132.648 635.994 -104.63 530.381 -49.3868 410.178C11.3695 283.679 105.025 136.248 224.464 63.9323C294.497 18.094 373.112 -15.5555 452.38 -29.903C531.6 -44.3866 611.795 -39.6562 670.517 -49.1767C772.94 -66.7908 866.814 -81.9752 959.753 -124.796C1034.25 -157.704 1095.7 -169.714 1147.07 -192.468C1198.39 -215.358 1239.97 -249.08 1286.51 -292.461C1346.24 -346.382 1462.12 -385.752 1580.77 -414.06C1699.43 -442.367 1821.17 -459.699 1878.81 -486.395C1988.08 -538.361 2071.7 -505.194 2182.07 -620.118" stroke="url(#paint19_linear_615_478)" stroke-width="2"/>
<path d="M-143.9 638.215C-140.192 634.109 -110.618 522.628 -52.3056 395.747C9.68201 264.669 104.19 113.962 226.166 43.0553C295.99 0.0972049 375.02 -29.3954 452.984 -43.6143C530.914 -57.924 607.993 -57.0188 664.268 -66.1426C766.691 -83.7567 861.809 -93.8113 954.013 -138.614C1026.75 -172.955 1083.64 -190.832 1131.55 -215.619C1179.43 -240.497 1218.55 -272.343 1263.59 -312.655C1322.54 -364.144 1441.31 -398.564 1562.06 -424.129C1682.8 -449.694 1805.74 -466.464 1863.84 -493.888C1976.43 -547.988 2064.7 -512.978 2181.2 -634.286" stroke="url(#paint20_linear_615_478)" stroke-width="2"/>
<path d="M-149.591 634.276C-147.737 632.223 -116.605 514.876 -55.2243 381.317C7.99457 245.659 103.355 91.6759 227.867 22.1782C297.484 -17.8998 376.929 -43.2355 453.587 -57.3258C530.229 -71.4616 604.191 -74.3815 658.02 -83.1087C760.442 -100.723 856.804 -105.647 948.272 -152.433C1019.25 -188.206 1071.59 -211.95 1116.04 -238.77C1160.47 -265.636 1197.13 -295.606 1240.68 -332.848C1298.85 -381.907 1420.5 -411.375 1543.34 -434.198C1666.18 -457.021 1790.32 -473.229 1848.87 -501.382C1964.78 -557.615 2057.69 -520.762 2180.33 -648.455" stroke="url(#paint21_linear_615_478)" stroke-width="2"/>
</g>
<defs>
<linearGradient id="paint0_linear_615_478" x1="1132.12" y1="392.858" x2="1013.34" y2="-40.3522" gradientUnits="userSpaceOnUse">
<stop stop-color="#1A6AFF" stop-opacity="0.75"/>
<stop offset="1" stop-color="#B0C8E8" stop-opacity="0.22"/>
</linearGradient>
<linearGradient id="paint1_linear_615_478" x1="1118.45" y1="281.124" x2="951.97" y2="-326.087" gradientUnits="userSpaceOnUse">
<stop stop-color="#1A6AFF" stop-opacity="0.75"/>
<stop offset="1" stop-color="#B0C8E8" stop-opacity="0.22"/>
</linearGradient>
<linearGradient id="paint2_linear_615_478" x1="1155.04" y1="381.074" x2="1034" y2="-60.4224" gradientUnits="userSpaceOnUse">
<stop stop-color="#1A6AFF" stop-opacity="0.75"/>
<stop offset="1" stop-color="#B0C8E8" stop-opacity="0.22"/>
</linearGradient>
<linearGradient id="paint3_linear_615_478" x1="1153.21" y1="376.077" x2="1029.89" y2="-73.7052" gradientUnits="userSpaceOnUse">
<stop stop-color="#1A6AFF" stop-opacity="0.75"/>
<stop offset="1" stop-color="#B0C8E8" stop-opacity="0.22"/>
</linearGradient>
<linearGradient id="paint4_linear_615_478" x1="1151.38" y1="371.079" x2="1025.79" y2="-86.9888" gradientUnits="userSpaceOnUse">
<stop stop-color="#1A6AFF" stop-opacity="0.75"/>
<stop offset="1" stop-color="#B0C8E8" stop-opacity="0.22"/>
</linearGradient>
<linearGradient id="paint5_linear_615_478" x1="1149.55" y1="366.082" x2="1021.69" y2="-100.272" gradientUnits="userSpaceOnUse">
<stop stop-color="#1A6AFF" stop-opacity="0.75"/>
<stop offset="1" stop-color="#B0C8E8" stop-opacity="0.22"/>
</linearGradient>
<linearGradient id="paint6_linear_615_478" x1="1147.72" y1="361.084" x2="1017.59" y2="-113.555" gradientUnits="userSpaceOnUse">
<stop stop-color="#1A6AFF" stop-opacity="0.75"/>
<stop offset="1" stop-color="#B0C8E8" stop-opacity="0.22"/>
</linearGradient>
<linearGradient id="paint7_linear_615_478" x1="1145.89" y1="356.086" x2="1013.49" y2="-126.839" gradientUnits="userSpaceOnUse">
<stop stop-color="#1A6AFF" stop-opacity="0.75"/>
<stop offset="1" stop-color="#B0C8E8" stop-opacity="0.22"/>
</linearGradient>
<linearGradient id="paint8_linear_615_478" x1="1144.06" y1="351.089" x2="1009.39" y2="-140.122" gradientUnits="userSpaceOnUse">
<stop stop-color="#1A6AFF" stop-opacity="0.75"/>
<stop offset="1" stop-color="#B0C8E8" stop-opacity="0.22"/>
</linearGradient>
<linearGradient id="paint9_linear_615_478" x1="1142.23" y1="346.091" x2="1005.29" y2="-153.405" gradientUnits="userSpaceOnUse">
<stop stop-color="#1A6AFF" stop-opacity="0.75"/>
<stop offset="1" stop-color="#B0C8E8" stop-opacity="0.22"/>
</linearGradient>
<linearGradient id="paint10_linear_615_478" x1="1140.4" y1="341.093" x2="1001.18" y2="-166.689" gradientUnits="userSpaceOnUse">
<stop stop-color="#1A6AFF" stop-opacity="0.75"/>
<stop offset="1" stop-color="#B0C8E8" stop-opacity="0.22"/>
</linearGradient>
<linearGradient id="paint11_linear_615_478" x1="1138.57" y1="336.096" x2="997.084" y2="-179.971" gradientUnits="userSpaceOnUse">
<stop stop-color="#1A6AFF" stop-opacity="0.75"/>
<stop offset="1" stop-color="#B0C8E8" stop-opacity="0.22"/>
</linearGradient>
<linearGradient id="paint12_linear_615_478" x1="1136.74" y1="331.099" x2="992.983" y2="-193.255" gradientUnits="userSpaceOnUse">
<stop stop-color="#1A6AFF" stop-opacity="0.75"/>
<stop offset="1" stop-color="#B0C8E8" stop-opacity="0.22"/>
</linearGradient>
<linearGradient id="paint13_linear_615_478" x1="1134.91" y1="326.101" x2="988.881" y2="-206.538" gradientUnits="userSpaceOnUse">
<stop stop-color="#1A6AFF" stop-opacity="0.75"/>
<stop offset="1" stop-color="#B0C8E8" stop-opacity="0.22"/>
</linearGradient>
<linearGradient id="paint14_linear_615_478" x1="1133.08" y1="321.104" x2="984.78" y2="-219.821" gradientUnits="userSpaceOnUse">
<stop stop-color="#1A6AFF" stop-opacity="0.75"/>
<stop offset="1" stop-color="#B0C8E8" stop-opacity="0.22"/>
</linearGradient>
<linearGradient id="paint15_linear_615_478" x1="1131.25" y1="316.106" x2="980.679" y2="-233.105" gradientUnits="userSpaceOnUse">
<stop stop-color="#1A6AFF" stop-opacity="0.75"/>
<stop offset="1" stop-color="#B0C8E8" stop-opacity="0.22"/>
</linearGradient>
<linearGradient id="paint16_linear_615_478" x1="1129.42" y1="311.109" x2="976.577" y2="-246.388" gradientUnits="userSpaceOnUse">
<stop stop-color="#1A6AFF" stop-opacity="0.75"/>
<stop offset="1" stop-color="#B0C8E8" stop-opacity="0.22"/>
</linearGradient>
<linearGradient id="paint17_linear_615_478" x1="1127.59" y1="306.111" x2="972.476" y2="-259.671" gradientUnits="userSpaceOnUse">
<stop stop-color="#1A6AFF" stop-opacity="0.75"/>
<stop offset="1" stop-color="#B0C8E8" stop-opacity="0.22"/>
</linearGradient>
<linearGradient id="paint18_linear_615_478" x1="1125.77" y1="301.113" x2="968.375" y2="-272.955" gradientUnits="userSpaceOnUse">
<stop stop-color="#1A6AFF" stop-opacity="0.75"/>
<stop offset="1" stop-color="#B0C8E8" stop-opacity="0.22"/>
</linearGradient>
<linearGradient id="paint19_linear_615_478" x1="1123.94" y1="296.116" x2="964.273" y2="-286.238" gradientUnits="userSpaceOnUse">
<stop stop-color="#1A6AFF" stop-opacity="0.75"/>
<stop offset="1" stop-color="#B0C8E8" stop-opacity="0.22"/>
</linearGradient>
<linearGradient id="paint20_linear_615_478" x1="1122.11" y1="291.119" x2="960.172" y2="-299.521" gradientUnits="userSpaceOnUse">
<stop stop-color="#1A6AFF" stop-opacity="0.75"/>
<stop offset="1" stop-color="#B0C8E8" stop-opacity="0.22"/>
</linearGradient>
<linearGradient id="paint21_linear_615_478" x1="1120.28" y1="286.121" x2="956.071" y2="-312.804" gradientUnits="userSpaceOnUse">
<stop stop-color="#1A6AFF" stop-opacity="0.75"/>
<stop offset="1" stop-color="#B0C8E8" stop-opacity="0.22"/>
</linearGradient>
</defs>
</svg>
