<svg width="17" height="9" viewBox="0 0 17 9" fill="none" xmlns="http://www.w3.org/2000/svg">
<path fill-rule="evenodd" clip-rule="evenodd" d="M16.0944 3.7351L16.5024 4.14315L16.1346 4.511C16.121 4.52883 16.1061 4.54596 16.0898 4.56224L12.7145 7.93754C12.5193 8.1328 12.2027 8.1328 12.0074 7.93754C11.8121 7.74228 11.8121 7.42569 12.0074 7.23043L14.4466 4.79119L1.44336 4.79119C1.16722 4.79119 0.943359 4.56733 0.943359 4.29119C0.943359 4.01505 1.16722 3.79119 1.44336 3.79119L14.7363 3.79119L12.0075 1.06234C11.8122 0.867079 11.8122 0.550497 12.0075 0.355235C12.2027 0.159973 12.5193 0.159973 12.7146 0.355235L16.0899 3.73053C16.0914 3.73205 16.0929 3.73357 16.0944 3.7351Z" fill="#789CCB"/>
</svg>
