<svg width="50" height="50" viewBox="0 0 50 50" fill="none" xmlns="http://www.w3.org/2000/svg">
<path d="M31.5 16H34.6716V10L49 25.3488L34.6716 40V34H31.5M9.59702 22.5581H15M1 28.1395H16M3.5 34H20M3.5 16H20" stroke="white" stroke-width="2" stroke-linecap="round" stroke-linejoin="round"/>
<path d="M32.3 20.59L33.21 19.69C33.3983 19.5017 33.5041 19.2463 33.5041 18.98C33.5041 18.7137 33.3983 18.4583 33.21 18.27C33.0217 18.0817 32.7663 17.9759 32.5 17.9759C32.2337 17.9759 31.9783 18.0817 31.79 18.27L30.89 19.18C29.4886 18.0959 27.7669 17.5076 25.995 17.5076C24.2232 17.5076 22.5015 18.0959 21.1 19.18L20.19 18.26C20.0004 18.0717 19.7437 17.9664 19.4765 17.9674C19.2093 17.9683 18.9533 18.0754 18.765 18.265C18.5767 18.4546 18.4715 18.7113 18.4724 18.9785C18.4733 19.2458 18.5804 19.5017 18.77 19.69L19.69 20.6C18.593 21.9975 17.9978 23.7233 18 25.5C17.9968 26.7754 18.2985 28.0331 18.88 29.1683C19.4616 30.3034 20.3061 31.283 21.3432 32.0254C22.3803 32.7679 23.5798 33.2516 24.8418 33.4362C26.1038 33.6208 27.3917 33.5011 28.598 33.0869C29.8043 32.6727 30.8941 31.9761 31.7764 31.0552C32.6588 30.1342 33.3082 29.0157 33.6705 27.7928C34.0328 26.5699 34.0974 25.2781 33.859 24.0251C33.6206 22.7722 33.0861 21.5944 32.3 20.59ZM26 31.5C24.8133 31.5 23.6533 31.1481 22.6666 30.4888C21.6799 29.8295 20.9109 28.8925 20.4567 27.7961C20.0026 26.6997 19.8838 25.4933 20.1153 24.3295C20.3468 23.1656 20.9183 22.0965 21.7574 21.2574C22.5965 20.4182 23.6656 19.8468 24.8295 19.6153C25.9934 19.3838 27.1998 19.5026 28.2961 19.9567C29.3925 20.4108 30.3296 21.1799 30.9888 22.1666C31.6481 23.1533 32 24.3133 32 25.5C32 27.0913 31.3679 28.6174 30.2427 29.7426C29.1174 30.8679 27.5913 31.5 26 31.5ZM24 16.5H28C28.2652 16.5 28.5196 16.3946 28.7071 16.2071C28.8947 16.0196 29 15.7652 29 15.5C29 15.2348 28.8947 14.9804 28.7071 14.7929C28.5196 14.6054 28.2652 14.5 28 14.5H24C23.7348 14.5 23.4805 14.6054 23.2929 14.7929C23.1054 14.9804 23 15.2348 23 15.5C23 15.7652 23.1054 16.0196 23.2929 16.2071C23.4805 16.3946 23.7348 16.5 24 16.5ZM27 22.5C27 22.2348 26.8947 21.9804 26.7071 21.7929C26.5196 21.6054 26.2652 21.5 26 21.5C25.7348 21.5 25.4805 21.6054 25.2929 21.7929C25.1054 21.9804 25 22.2348 25 22.5V24.39C24.7736 24.5925 24.614 24.859 24.5423 25.1542C24.4707 25.4495 24.4904 25.7595 24.5988 26.0433C24.7072 26.3271 24.8992 26.5712 25.1494 26.7435C25.3996 26.9158 25.6962 27.008 26 27.008C26.3038 27.008 26.6004 26.9158 26.8507 26.7435C27.1009 26.5712 27.2929 26.3271 27.4013 26.0433C27.5097 25.7595 27.5294 25.4495 27.4577 25.1542C27.3861 24.859 27.2265 24.5925 27 24.39V22.5Z" fill="#1A6AFF"/>
</svg>
