<svg width="50" height="50" viewBox="0 0 50 50" fill="none" xmlns="http://www.w3.org/2000/svg">
<path d="M19.5 6L24.5 1.00003L29.5 6M5.99997 19.5L1 24.5L6.01196 29.5M29.5 43L24.5 48L19.5 43M43 29.5L48 24.5L42.5 19" stroke="white" stroke-width="2" stroke-linecap="round" stroke-linejoin="round"/>
<path d="M14.6669 40.3334C14.8437 40.3334 15.0133 40.2631 15.1383 40.1381C15.2633 40.0131 15.3335 39.8435 15.3335 39.6667C15.3368 39.6223 15.3368 39.5778 15.3335 39.5334C15.3262 39.4916 15.3128 39.4512 15.2935 39.4134C15.2789 39.3709 15.2588 39.3305 15.2335 39.2934L15.1535 39.1934C15.0887 39.1345 15.0143 39.0871 14.9335 39.0534C14.7712 38.9867 14.5892 38.9867 14.4269 39.0534C14.3461 39.0871 14.2717 39.1345 14.2069 39.1934L14.1269 39.2934C14.1016 39.3305 14.0815 39.3709 14.0669 39.4134C14.0476 39.4512 14.0342 39.4916 14.0269 39.5334C14.0236 39.5778 14.0236 39.6223 14.0269 39.6667C14.0269 39.8435 14.0971 40.0131 14.2221 40.1381C14.3472 40.2631 14.5167 40.3334 14.6935 40.3334H14.6669ZM16.0002 30.3334H8.0002C7.46977 30.3334 6.96106 30.5441 6.58599 30.9192C6.21092 31.2942 6.0002 31.8029 6.0002 32.3334V40.3334C6.00124 40.6427 6.07402 40.9476 6.21284 41.2241C6.35165 41.5006 6.55271 41.7411 6.8002 41.9267L6.19354 42.5267C6.13105 42.5887 6.08145 42.6624 6.04761 42.7437C6.01376 42.8249 5.99634 42.912 5.99634 43C5.99634 43.088 6.01376 43.1752 6.04761 43.2564C6.08145 43.3377 6.13105 43.4114 6.19354 43.4734C6.25551 43.5359 6.32925 43.5855 6.41049 43.6193C6.49173 43.6531 6.57886 43.6706 6.66687 43.6706C6.75488 43.6706 6.84202 43.6531 6.92325 43.6193C7.00449 43.5855 7.07823 43.5359 7.1402 43.4734L8.27354 42.3334H15.7269L16.8602 43.4734C16.9222 43.5359 16.9959 43.5855 17.0772 43.6193C17.1584 43.6531 17.2455 43.6706 17.3335 43.6706C17.4215 43.6706 17.5087 43.6531 17.5899 43.6193C17.6712 43.5855 17.7449 43.5359 17.8069 43.4734C17.8694 43.4114 17.919 43.3377 17.9528 43.2564C17.9866 43.1752 18.0041 43.088 18.0041 43C18.0041 42.912 17.9866 42.8249 17.9528 42.7437C17.919 42.6624 17.8694 42.5887 17.8069 42.5267L17.2002 41.9267C17.4477 41.7411 17.6488 41.5006 17.7876 41.2241C17.9264 40.9476 17.9992 40.6427 18.0002 40.3334V32.3334C18.0002 31.8029 17.7895 31.2942 17.4144 30.9192C17.0393 30.5441 16.5306 30.3334 16.0002 30.3334ZM7.33354 34.3334H11.3335V37H7.33354V34.3334ZM16.6669 40.3334C16.6669 40.5102 16.5966 40.6798 16.4716 40.8048C16.3466 40.9298 16.177 41 16.0002 41H8.0002C7.82339 41 7.65382 40.9298 7.5288 40.8048C7.40377 40.6798 7.33354 40.5102 7.33354 40.3334V38.3334H16.6669V40.3334ZM16.6669 37H12.6669V34.3334H16.6669V37ZM16.6669 33H7.33354V32.3334C7.33354 32.1566 7.40377 31.987 7.5288 31.862C7.65382 31.7369 7.82339 31.6667 8.0002 31.6667H16.0002C16.177 31.6667 16.3466 31.7369 16.4716 31.862C16.5966 31.987 16.6669 32.1566 16.6669 32.3334V33ZM9.33354 40.3334C9.51035 40.3334 9.67992 40.2631 9.80494 40.1381C9.92997 40.0131 10.0002 39.8435 10.0002 39.6667C10.0035 39.6223 10.0035 39.5778 10.0002 39.5334C9.99291 39.4916 9.97942 39.4512 9.9602 39.4134C9.94561 39.3709 9.92543 39.3305 9.9002 39.2934L9.8202 39.1934C9.7554 39.1345 9.68099 39.0871 9.6002 39.0534C9.4379 38.9867 9.25584 38.9867 9.09354 39.0534C9.01275 39.0871 8.93834 39.1345 8.87354 39.1934L8.79354 39.2934C8.76831 39.3305 8.74813 39.3709 8.73354 39.4134C8.70498 39.4495 8.68247 39.49 8.66687 39.5334C8.6636 39.5778 8.6636 39.6223 8.66687 39.6667C8.66761 39.8416 8.73704 40.0092 8.8602 40.1334C8.92195 40.1964 8.99558 40.2465 9.07683 40.2808C9.15808 40.3151 9.24533 40.333 9.33354 40.3334Z" fill="#1A6AFF"/>
<g clip-path="url(#clip0_208_108)">
<path d="M28.667 37.3333V40.6666C28.667 40.8434 28.7372 41.013 28.8623 41.138C28.9873 41.2631 29.1568 41.3333 29.3337 41.3333H30.0003C30.0003 41.8637 30.211 42.3724 30.5861 42.7475C30.9612 43.1226 31.4699 43.3333 32.0003 43.3333C32.5308 43.3333 33.0395 43.1226 33.4145 42.7475C33.7896 42.3724 34.0003 41.8637 34.0003 41.3333H38.0003C38.0003 41.8637 38.211 42.3724 38.5861 42.7475C38.9612 43.1226 39.4699 43.3333 40.0003 43.3333C40.5308 43.3333 41.0395 43.1226 41.4145 42.7475C41.7896 42.3724 42.0003 41.8637 42.0003 41.3333H42.667C42.8438 41.3333 43.0134 41.2631 43.1384 41.138C43.2634 41.013 43.3337 40.8434 43.3337 40.6666V32.6666C43.3337 32.1362 43.1229 31.6275 42.7479 31.2524C42.3728 30.8773 41.8641 30.6666 41.3337 30.6666H35.3337C34.8032 30.6666 34.2945 30.8773 33.9194 31.2524C33.5444 31.6275 33.3337 32.1362 33.3337 32.6666V34H32.0003C31.6898 34 31.3836 34.0722 31.1059 34.2111C30.8282 34.35 30.5866 34.5516 30.4003 34.8L28.8003 36.9333C28.7808 36.9623 28.7651 36.9936 28.7537 37.0266L28.7137 37.1C28.6842 37.1743 28.6684 37.2533 28.667 37.3333ZM39.3337 41.3333C39.3337 41.2014 39.3728 41.0725 39.446 40.9629C39.5193 40.8533 39.6234 40.7678 39.7452 40.7174C39.867 40.6669 40.0011 40.6537 40.1304 40.6794C40.2597 40.7052 40.3785 40.7687 40.4717 40.8619C40.565 40.9551 40.6285 41.0739 40.6542 41.2032C40.6799 41.3326 40.6667 41.4666 40.6162 41.5884C40.5658 41.7102 40.4803 41.8144 40.3707 41.8876C40.2611 41.9609 40.1322 42 40.0003 42C39.8235 42 39.6539 41.9297 39.5289 41.8047C39.4039 41.6797 39.3337 41.5101 39.3337 41.3333ZM34.667 32.6666C34.667 32.4898 34.7372 32.3202 34.8623 32.1952C34.9873 32.0702 35.1568 32 35.3337 32H41.3337C41.5105 32 41.68 32.0702 41.8051 32.1952C41.9301 32.3202 42.0003 32.4898 42.0003 32.6666V40H41.4803C41.2929 39.7937 41.0644 39.6289 40.8095 39.5162C40.5546 39.4034 40.279 39.3452 40.0003 39.3452C39.7216 39.3452 39.446 39.4034 39.1911 39.5162C38.9363 39.6289 38.7078 39.7937 38.5203 40H34.667V32.6666ZM33.3337 36.6666H30.667L31.467 35.6C31.5291 35.5172 31.6096 35.45 31.7022 35.4037C31.7948 35.3574 31.8968 35.3333 32.0003 35.3333H33.3337V36.6666ZM31.3337 41.3333C31.3337 41.2014 31.3728 41.0725 31.446 40.9629C31.5193 40.8533 31.6234 40.7678 31.7452 40.7174C31.867 40.6669 32.0011 40.6537 32.1304 40.6794C32.2597 40.7052 32.3785 40.7687 32.4717 40.8619C32.565 40.9551 32.6285 41.0739 32.6542 41.2032C32.6799 41.3326 32.6667 41.4666 32.6162 41.5884C32.5658 41.7102 32.4803 41.8144 32.3707 41.8876C32.2611 41.9609 32.1322 42 32.0003 42C31.8235 42 31.6539 41.9297 31.5289 41.8047C31.4039 41.6797 31.3337 41.5101 31.3337 41.3333ZM30.0003 38H33.3337V39.8533C32.9402 39.5017 32.4237 39.3198 31.8968 39.3472C31.3698 39.3747 30.8751 39.6093 30.5203 40H30.0003V38Z" fill="#1A6AFF"/>
</g>
<path fill-rule="evenodd" clip-rule="evenodd" d="M4.66699 5.33341C4.66699 5.1566 4.73723 4.98703 4.86225 4.86201C4.98728 4.73699 5.15685 4.66675 5.33366 4.66675H6.01033C6.62318 4.6667 7.23004 4.78737 7.79625 5.02187C8.36247 5.25636 8.87695 5.60009 9.31033 6.03341L11.1637 7.88741L15.9477 6.02741C16.3095 5.88671 16.7044 5.85434 17.0843 5.93425C17.4641 6.01415 17.8125 6.20288 18.087 6.47741L19.1383 7.52875C19.2111 7.60151 19.2661 7.69014 19.2989 7.78768C19.3317 7.88523 19.3415 7.98905 19.3275 8.09102C19.3135 8.19298 19.276 8.29031 19.2181 8.37539C19.1602 8.46047 19.0834 8.53099 18.9937 8.58141L14.3757 11.1787L15.9303 12.9554L17.4397 12.7401C17.7741 12.6923 18.115 12.751 18.4142 12.9078C18.7134 13.0646 18.9557 13.3115 19.1067 13.6137C19.2578 13.9158 19.3099 14.2578 19.2557 14.5912C19.2016 14.9247 19.0439 15.2326 18.805 15.4714L15.4717 18.8047C15.2328 19.0436 14.9249 19.2013 14.5915 19.2555C14.2581 19.3096 13.9161 19.2575 13.6139 19.1065C13.3118 18.9554 13.0648 18.7132 12.908 18.414C12.7512 18.1148 12.6926 17.7738 12.7403 17.4394L12.9557 15.9301L11.179 14.3754L8.58166 18.9934C8.53125 19.0833 8.46071 19.1602 8.37558 19.2182C8.29044 19.2762 8.19302 19.3137 8.09097 19.3277C7.98891 19.3417 7.88499 19.3319 7.78737 19.299C7.68975 19.2661 7.60109 19.211 7.52833 19.1381L6.47833 18.0867C6.20379 17.8123 6.01506 17.4639 5.93516 17.084C5.85525 16.7041 5.88762 16.3092 6.02833 15.9474L7.88833 11.1641L6.03499 9.30941C5.60142 8.87615 5.25745 8.36172 5.02273 7.7955C4.788 7.22927 4.66712 6.62236 4.66699 6.00941V5.33341ZM6.00033 6.00008V6.01008C6.00034 6.89397 6.35141 7.74166 6.97633 8.36675L9.13833 10.5287C9.22988 10.6203 9.29282 10.7364 9.31945 10.8631C9.34609 10.9898 9.33527 11.1215 9.28833 11.2421L7.27033 16.4307C7.22338 16.5514 7.21256 16.6831 7.2392 16.8097C7.26584 16.9364 7.32877 17.0526 7.42033 17.1441L7.85033 17.5741L10.419 13.0067C10.4676 12.9204 10.5349 12.8459 10.6159 12.7888C10.697 12.7317 10.7897 12.6934 10.8874 12.6767C10.9851 12.6599 11.0853 12.6652 11.1808 12.6921C11.2762 12.719 11.3644 12.7668 11.439 12.8321L14.1057 15.1654C14.1892 15.2384 14.2531 15.3311 14.2918 15.435C14.3304 15.539 14.3425 15.6509 14.327 15.7607L14.0603 17.6274C14.0519 17.6849 14.0619 17.7435 14.0887 17.795C14.1156 17.8464 14.1579 17.8881 14.2099 17.9141C14.2618 17.9401 14.3205 17.9491 14.3778 17.9397C14.4351 17.9304 14.488 17.9032 14.529 17.8621L17.8623 14.5287C17.9035 14.4878 17.9306 14.4349 17.94 14.3776C17.9493 14.3203 17.9404 14.2615 17.9144 14.2096C17.8884 14.1577 17.8467 14.1153 17.7952 14.0885C17.7437 14.0616 17.6851 14.0517 17.6277 14.0601L15.761 14.3267C15.6511 14.3424 15.539 14.3304 15.4349 14.2917C15.3308 14.2531 15.238 14.189 15.165 14.1054L12.8317 11.4387C12.7664 11.3641 12.7186 11.2758 12.6918 11.1804C12.6649 11.085 12.6597 10.9847 12.6765 10.887C12.6933 10.7893 12.7317 10.6966 12.7889 10.6156C12.846 10.5346 12.9206 10.4673 13.007 10.4187L17.5737 7.85008L17.1443 7.42008C17.0528 7.32853 16.9366 7.26559 16.81 7.23895C16.6833 7.21232 16.5516 7.22313 16.431 7.27008L11.2417 9.28808C11.121 9.33503 10.9893 9.34584 10.8627 9.31921C10.736 9.29257 10.6198 9.22964 10.5283 9.13808L8.36699 6.97608C7.74191 6.35116 6.89421 6.00009 6.01033 6.00008H6.00033Z" fill="#1A6AFF"/>
<path d="M30.4136 15.52C30.479 15.6845 30.6071 15.8162 30.7696 15.8862C30.9321 15.9562 31.1158 15.9588 31.2803 15.8934C31.4447 15.828 31.5764 15.6999 31.6464 15.5374C31.7164 15.3748 31.719 15.1911 31.6536 15.0267L30.9069 13.1467L35.3336 12.1667V15.3334C35.3336 15.5102 35.4038 15.6798 35.5289 15.8048C35.6539 15.9298 35.8235 16 36.0003 16C36.1771 16 36.3466 15.9298 36.4717 15.8048C36.5967 15.6798 36.6669 15.5102 36.6669 15.3334V12.1667L41.0936 13.1467L40.3469 15.0267C40.3145 15.1081 40.2984 15.1951 40.2995 15.2828C40.3007 15.3704 40.3192 15.457 40.3539 15.5375C40.3886 15.618 40.4388 15.6908 40.5016 15.7519C40.5645 15.813 40.6388 15.861 40.7203 15.8934C40.7988 15.9244 40.8825 15.9402 40.9669 15.94C41.1005 15.9402 41.2309 15.9002 41.3415 15.8253C41.452 15.7504 41.5375 15.6441 41.5869 15.52L42.6203 12.9134C42.6557 12.8232 42.6711 12.7264 42.6654 12.6297C42.6596 12.533 42.6328 12.4387 42.5869 12.3534C42.5424 12.2684 42.48 12.194 42.4041 12.1353C42.3281 12.0766 42.2404 12.035 42.1469 12.0134L40.0003 11.54V8.66671C40.0003 8.4899 39.93 8.32033 39.805 8.1953C39.68 8.07028 39.5104 8.00004 39.3336 8.00004H38.0003V6.00004C38.0003 5.82323 37.93 5.65366 37.805 5.52864C37.68 5.40361 37.5104 5.33337 37.3336 5.33337H34.6669C34.4901 5.33337 34.3206 5.40361 34.1955 5.52864C34.0705 5.65366 34.0003 5.82323 34.0003 6.00004V8.00004H32.6669C32.4901 8.00004 32.3206 8.07028 32.1955 8.1953C32.0705 8.32033 32.0003 8.4899 32.0003 8.66671V11.54L29.8536 12C29.7601 12.0217 29.6724 12.0633 29.5965 12.122C29.5205 12.1807 29.4581 12.255 29.4136 12.34C29.3677 12.4254 29.3409 12.5197 29.3352 12.6164C29.3294 12.7131 29.3448 12.8099 29.3803 12.9L30.4136 15.52ZM35.3336 6.66671H36.6669V8.00004H35.3336V6.66671ZM33.3336 9.33337H38.6669V11.24L36.1469 10.6667H36.0803H36.0003H35.9203H35.8536L33.3336 11.24V9.33337ZM41.8069 16.8534C41.573 16.9251 41.349 17.0258 41.1403 17.1534C40.9279 17.2776 40.6863 17.343 40.4403 17.343C40.1942 17.343 39.9526 17.2776 39.7403 17.1534C39.2784 16.8928 38.7572 16.756 38.2269 16.756C37.6967 16.756 37.1754 16.8928 36.7136 17.1534C36.4983 17.2761 36.2548 17.3407 36.0069 17.3407C35.7591 17.3407 35.5156 17.2761 35.3003 17.1534C34.838 16.8941 34.3169 16.7579 33.7869 16.7579C33.2569 16.7579 32.7358 16.8941 32.2736 17.1534C32.0612 17.2776 31.8196 17.343 31.5736 17.343C31.3276 17.343 31.086 17.2776 30.8736 17.1534C30.6648 17.0258 30.4408 16.9251 30.2069 16.8534C30.1182 16.8218 30.0238 16.8094 29.93 16.817C29.8362 16.8246 29.745 16.8519 29.6625 16.8973C29.58 16.9426 29.508 17.0049 29.4513 17.0801C29.3946 17.1553 29.3545 17.2416 29.3336 17.3334C29.2838 17.5022 29.3029 17.6839 29.3865 17.8388C29.4702 17.9936 29.6118 18.1091 29.7803 18.16C29.9145 18.1964 30.0426 18.2526 30.1603 18.3267C30.5647 18.564 31.0246 18.6905 31.4936 18.6934C31.9807 18.6935 32.4591 18.5647 32.8803 18.32C33.1416 18.1759 33.4352 18.1003 33.7336 18.1003C34.032 18.1003 34.3256 18.1759 34.5869 18.32C35.0051 18.5592 35.4785 18.685 35.9603 18.685C36.442 18.685 36.9154 18.5592 37.3336 18.32C37.5949 18.1759 37.8885 18.1003 38.1869 18.1003C38.4854 18.1003 38.7789 18.1759 39.0403 18.32C39.4535 18.5667 39.9257 18.6969 40.4069 18.6969C40.8881 18.6969 41.3604 18.5667 41.7736 18.32C41.8913 18.2459 42.0194 18.1897 42.1536 18.1534C42.2423 18.1354 42.3265 18.0996 42.4009 18.0481C42.4753 17.9966 42.5385 17.9304 42.5865 17.8537C42.6345 17.777 42.6664 17.6913 42.6802 17.6018C42.6941 17.5124 42.6895 17.421 42.6669 17.3334C42.6457 17.2432 42.606 17.1583 42.5502 17.0843C42.4944 17.0104 42.4238 16.9488 42.3428 16.9036C42.2619 16.8585 42.1725 16.8307 42.0802 16.822C41.9879 16.8134 41.8948 16.824 41.8069 16.8534Z" fill="#1A6AFF"/>
<defs>
<clipPath id="clip0_208_108">
<rect width="16" height="16" fill="white" transform="translate(28.0002 29)"/>
</clipPath>
</defs>
</svg>
