<svg width="17" height="9" viewBox="0 0 17 9" fill="none" xmlns="http://www.w3.org/2000/svg">
<path fill-rule="evenodd" clip-rule="evenodd" d="M16.0906 3.73171L16.5 4.14106L16.1325 4.50852C16.1189 4.52654 16.1038 4.54385 16.0874 4.56029L12.7121 7.93559C12.5168 8.13085 12.2002 8.13085 12.005 7.93558C11.8097 7.74032 11.8097 7.42374 12.005 7.22848L14.4443 4.78914L1.44092 4.78914C1.16478 4.78914 0.940918 4.56528 0.940918 4.28914C0.940918 4.01299 1.16478 3.78914 1.44092 3.78914L14.7339 3.78914L12.005 1.06029C11.8098 0.865027 11.8098 0.548445 12.005 0.353182C12.2003 0.157919 12.5169 0.157919 12.7121 0.353182L15.8134 3.45445L16.0874 3.72848C16.0885 3.72955 16.0896 3.73063 16.0906 3.73171Z" fill="white"/>
</svg>
