<svg width="64" height="64" viewBox="0 0 64 64" fill="none" xmlns="http://www.w3.org/2000/svg">
<rect width="64" height="64" fill="#1A6AFF" fill-opacity="0.2"/>
<rect x="10" y="10" width="44" height="44" fill="#1A6AFF" fill-opacity="0.5"/>
<rect x="20" y="20" width="24" height="24" fill="#1A6AFF"/>
<path d="M27.1822 26.8999H25.5824C24.8477 26.8999 24.3639 27.6656 24.6792 28.3292L30.7644 41.1338C31.1232 41.8889 32.195 41.8965 32.5646 41.1466L41.2894 23.442C41.6169 22.7775 41.1332 22 40.3924 22H38.7977C38.4162 22 38.0679 22.2171 37.8999 22.5596L32.5825 33.4011C32.2107 34.1593 31.1246 34.1437 30.7747 33.3752L28.0923 27.4855C27.9299 27.1288 27.5741 26.8999 27.1822 26.8999Z" fill="white"/>
</svg>
