<svg width="17" height="9" viewBox="0 0 17 9" fill="none" xmlns="http://www.w3.org/2000/svg">
<path fill-rule="evenodd" clip-rule="evenodd" d="M16.092 3.73339L16.5 4.14144L16.1321 4.50929C16.1186 4.52713 16.1036 4.54425 16.0874 4.56054L12.7121 7.93583C12.5168 8.13109 12.2002 8.13109 12.005 7.93583C11.8097 7.74057 11.8097 7.42398 12.005 7.22872L14.4442 4.78948L1.44092 4.78948C1.16478 4.78948 0.940918 4.56562 0.940918 4.28948C0.940918 4.01334 1.16478 3.78948 1.44092 3.78948L14.7339 3.78948L12.005 1.06063C11.8098 0.86537 11.8098 0.548788 12.005 0.353526C12.2003 0.158264 12.5169 0.158264 12.7121 0.353526L16.0874 3.72882C16.089 3.73034 16.0905 3.73186 16.092 3.73339Z" fill="#789CCB"/>
</svg>
