<svg width="17" height="9" viewBox="0 0 17 9" fill="none" xmlns="http://www.w3.org/2000/svg">
<path fill-rule="evenodd" clip-rule="evenodd" d="M16.0906 3.80007L16.5 4.20942L16.1325 4.57688C16.1189 4.5949 16.1038 4.61221 16.0874 4.62865L12.7121 8.00394C12.5168 8.19921 12.2002 8.19921 12.005 8.00394C11.8097 7.80868 11.8097 7.4921 12.005 7.29684L14.4443 4.8575L1.44092 4.8575C1.16478 4.8575 0.940918 4.63364 0.940918 4.3575C0.940918 4.08135 1.16478 3.85749 1.44092 3.85749L14.7339 3.85749L12.005 1.12865C11.8098 0.933386 11.8098 0.616804 12.005 0.421542C12.2003 0.22628 12.5169 0.22628 12.7121 0.421542L16.0874 3.79684C16.0885 3.79791 16.0896 3.79899 16.0906 3.80007Z" fill="white"/>
</svg>
