<svg width="1390" height="530" viewBox="0 0 1390 530" fill="none" xmlns="http://www.w3.org/2000/svg">
<path d="M967.118 7.94023C960.75 5.11895 954.079 2.64624 947.633 0.521545L1084.58 1.43118L1159.39 132.282L1159.39 132.285L1235.43 263.14L1161.85 396.315L1161.84 396.325L1084.17 529.5H928.995C956.571 523.226 980.129 512.259 1000 495.394C1031.67 469.624 1047.28 433.081 1047.28 387.702C1047.28 343.731 1033.73 309.546 1007.83 282.384L1007.82 282.375C981.125 255.711 942.551 233.75 890.898 217.871C855.691 204.813 829.962 192.708 815.694 181.566C801.451 169.511 793.762 156.114 793.762 137.632C793.762 118.642 800.667 102.915 814.485 90.4148C828.287 77.9294 847.808 71.882 873.536 71.882C891.115 71.882 907.854 73.7451 922.946 78.3916L922.95 78.3927C938.405 83.0256 950.155 87.6406 958.266 93.5924L970.52 166.175L970.59 166.592H971.013H1040.64H1041.14V166.092V57.8521V57.6513L1041 57.5063C1021.29 36.9213 996.244 20.5577 967.118 7.94023ZM518.388 141.331H448.5V1.4331H801.895C782.052 8.79056 764.407 18.3872 747.888 32.2757L747.887 32.2769C715.828 59.4322 699.382 94.5632 699.382 137.632C699.382 181.611 713.763 215.344 741.731 240.644L741.734 240.646C770.066 265.904 811.504 286.925 867.23 305.596C899.165 316.79 921.188 327.957 933.8 340.469C946.392 352.963 952.901 369.16 952.901 389.102C952.901 409.033 945.991 424.756 933.41 436.317C920.013 447.875 901.306 453.919 875.584 453.919C855.974 453.919 838.014 451.127 822.516 445.553C807.047 439.524 793.658 432.591 784.315 423.851L774.508 348.448L774.452 348.012H774.013H701.929H701.429V348.512V459.085V459.264L701.544 459.403C721.26 483.266 746.308 501.036 775.846 515.056C789.218 521.402 803.928 526.216 819.974 529.5H558.673V466.95L608.249 455.84L608.639 455.752V455.352V82.1127V81.6127H608.139H522.95H522.483L522.451 82.0785L518.388 141.331Z" stroke="#CDDEF5"/>
<path d="M25.7812 396V388.617L35.332 386.977V319.418H15.9961L14.2969 331.254H5.625V310.688H76.5234V331.254H67.9688L66.2109 319.418H46.875V386.977L56.4258 388.617V396H25.7812ZM109.746 397.23C103.887 397.23 98.7891 395.902 94.4531 393.246C90.1172 390.551 86.7578 386.82 84.375 382.055C82.0312 377.289 80.8594 371.781 80.8594 365.531V362.953C80.8594 356.938 82.0898 351.566 84.5508 346.84C87.0508 342.074 90.3516 338.324 94.4531 335.59C98.5938 332.816 103.105 331.43 107.988 331.43C113.691 331.43 118.457 332.602 122.285 334.945C126.152 337.289 129.062 340.59 131.016 344.848C132.969 349.066 133.945 354.047 133.945 359.789V366.996H92.8125L92.6367 367.289C92.7148 371.352 93.418 374.965 94.7461 378.129C96.1133 381.254 98.0664 383.715 100.605 385.512C103.145 387.309 106.191 388.207 109.746 388.207C113.652 388.207 117.07 387.66 120 386.566C122.969 385.434 125.527 383.891 127.676 381.938L132.188 389.438C129.922 391.625 126.914 393.48 123.164 395.004C119.453 396.488 114.98 397.23 109.746 397.23ZM93.1641 357.973H122.402V356.449C122.402 353.402 121.855 350.688 120.762 348.305C119.707 345.883 118.105 343.988 115.957 342.621C113.848 341.215 111.191 340.512 107.988 340.512C105.41 340.512 103.066 341.273 100.957 342.797C98.8477 344.281 97.1094 346.312 95.7422 348.891C94.375 351.469 93.4766 354.398 93.0469 357.68L93.1641 357.973ZM141.094 396V388.617L148.125 387.27L167.051 363.949L148.535 341.391L142.266 340.043V332.602H167.109V340.043L160.781 340.746L173.789 356.918L186.445 340.688L179.648 340.043V332.602H204.082V340.043L197.637 341.391L180.469 363.773L200.215 387.27L206.777 388.617V396H179.883V388.617L187.5 387.973L173.613 371.039L160.137 387.973L166.992 388.617V396H141.094ZM214.863 396V388.617L224.414 386.977V341.684L214.863 340.043V332.602H245.508V340.043L235.957 341.684V360.023H264.141V341.684L254.59 340.043V332.602H264.141H275.742H285.293V340.043L275.742 341.684V386.977L285.293 388.617V396H254.59V388.617L264.141 386.977V369.047H235.957V386.977L245.508 388.617V396H214.863ZM323.965 397.23C318.105 397.23 313.047 395.863 308.789 393.129C304.57 390.355 301.309 386.547 299.004 381.703C296.699 376.82 295.547 371.254 295.547 365.004V363.715C295.547 357.465 296.699 351.918 299.004 347.074C301.309 342.191 304.57 338.363 308.789 335.59C313.047 332.816 318.066 331.43 323.848 331.43C329.707 331.43 334.746 332.816 338.965 335.59C343.223 338.363 346.504 342.172 348.809 347.016C351.113 351.859 352.266 357.426 352.266 363.715V365.004C352.266 371.293 351.113 376.879 348.809 381.762C346.504 386.605 343.242 390.395 339.023 393.129C334.805 395.863 329.785 397.23 323.965 397.23ZM323.965 388.207C327.637 388.207 330.703 387.211 333.164 385.219C335.664 383.188 337.539 380.434 338.789 376.957C340.078 373.441 340.723 369.457 340.723 365.004V363.715C340.723 359.262 340.078 355.297 338.789 351.82C337.539 348.305 335.664 345.551 333.164 343.559C330.664 341.527 327.559 340.512 323.848 340.512C320.176 340.512 317.09 341.527 314.59 343.559C312.09 345.551 310.215 348.305 308.965 351.82C307.715 355.297 307.09 359.262 307.09 363.715V365.004C307.09 369.457 307.715 373.441 308.965 376.957C310.215 380.434 312.09 383.188 314.59 385.219C317.129 387.211 320.254 388.207 323.965 388.207ZM401.66 397.23C393.105 397.23 385.957 395.355 380.215 391.605C374.512 387.855 370.215 382.719 367.324 376.195C364.473 369.672 363.047 362.27 363.047 353.988V352.758C363.047 344.398 364.551 336.977 367.559 330.492C370.566 323.969 374.883 318.832 380.508 315.082C386.133 311.332 392.852 309.457 400.664 309.457C406.172 309.457 411.211 310.316 415.781 312.035C420.352 313.754 424.141 315.941 427.148 318.598V336.996H417.949L416.719 323.52C415.469 322.543 414.023 321.723 412.383 321.059C410.781 320.395 408.984 319.887 406.992 319.535C405.039 319.184 402.91 319.008 400.605 319.008C395.02 319.008 390.293 320.453 386.426 323.344C382.559 326.195 379.629 330.141 377.637 335.18C375.645 340.219 374.648 346.039 374.648 352.641V353.988C374.648 361.137 375.703 367.25 377.812 372.328C379.961 377.367 383.066 381.215 387.129 383.871C391.23 386.527 396.211 387.855 402.07 387.855C404.805 387.855 407.48 387.523 410.098 386.859C412.715 386.195 414.883 385.336 416.602 384.281L417.891 372.387H426.914V390.902C423.711 392.895 419.883 394.457 415.43 395.59C410.977 396.684 406.387 397.23 401.66 397.23ZM469.043 397.23C463.184 397.23 458.086 395.902 453.75 393.246C449.414 390.551 446.055 386.82 443.672 382.055C441.328 377.289 440.156 371.781 440.156 365.531V362.953C440.156 356.938 441.387 351.566 443.848 346.84C446.348 342.074 449.648 338.324 453.75 335.59C457.891 332.816 462.402 331.43 467.285 331.43C472.988 331.43 477.754 332.602 481.582 334.945C485.449 337.289 488.359 340.59 490.312 344.848C492.266 349.066 493.242 354.047 493.242 359.789V366.996H452.109L451.934 367.289C452.012 371.352 452.715 374.965 454.043 378.129C455.41 381.254 457.363 383.715 459.902 385.512C462.441 387.309 465.488 388.207 469.043 388.207C472.949 388.207 476.367 387.66 479.297 386.566C482.266 385.434 484.824 383.891 486.973 381.938L491.484 389.438C489.219 391.625 486.211 393.48 482.461 395.004C478.75 396.488 474.277 397.23 469.043 397.23ZM452.461 357.973H481.699V356.449C481.699 353.402 481.152 350.688 480.059 348.305C479.004 345.883 477.402 343.988 475.254 342.621C473.145 341.215 470.488 340.512 467.285 340.512C464.707 340.512 462.363 341.273 460.254 342.797C458.145 344.281 456.406 346.312 455.039 348.891C453.672 351.469 452.773 354.398 452.344 357.68L452.461 357.973ZM500.508 420.375V412.934L509.473 411.293V341.684L499.922 340.043V332.602H519.375L520.43 340.336C522.539 337.445 525.098 335.238 528.105 333.715C531.152 332.191 534.668 331.43 538.652 331.43C543.887 331.43 548.359 332.855 552.07 335.707C555.781 338.52 558.613 342.484 560.566 347.602C562.52 352.68 563.496 358.637 563.496 365.473V366.703C563.496 372.797 562.5 378.129 560.508 382.699C558.555 387.27 555.742 390.844 552.07 393.422C548.398 395.961 543.984 397.23 538.828 397.23C534.922 397.23 531.484 396.586 528.516 395.297C525.586 393.969 523.086 392.016 521.016 389.438V411.293L531.094 412.934V420.375H500.508ZM535.254 388.207C540.723 388.207 544.863 386.215 547.676 382.23C550.488 378.246 551.895 373.07 551.895 366.703V365.473C551.895 360.629 551.27 356.371 550.02 352.699C548.77 348.988 546.895 346.078 544.395 343.969C541.934 341.859 538.848 340.805 535.137 340.805C531.855 340.805 529.043 341.547 526.699 343.031C524.355 344.516 522.461 346.547 521.016 349.125V380.004C522.461 382.621 524.336 384.652 526.641 386.098C528.984 387.504 531.855 388.207 535.254 388.207ZM576.27 396V388.617L585.82 386.977V341.684L576.27 340.043V332.602H585.82H610.781C619.141 332.602 625.625 334.066 630.234 336.996C634.844 339.887 637.148 344.242 637.148 350.062C637.148 353.031 636.25 355.688 634.453 358.031C632.656 360.336 630.117 362.094 626.836 363.305C630.781 364.281 633.867 366.117 636.094 368.812C638.32 371.469 639.434 374.516 639.434 377.953C639.434 383.891 637.266 388.383 632.93 391.43C628.633 394.477 622.598 396 614.824 396H576.27ZM597.363 387.094H614.824C619.121 387.094 622.363 386.293 624.551 384.691C626.738 383.051 627.832 380.707 627.832 377.66C627.832 374.652 626.738 372.328 624.551 370.688C622.363 369.047 619.121 368.227 614.824 368.227H597.363V387.094ZM597.363 359.379H610.84C615.723 359.379 619.395 358.656 621.855 357.211C624.355 355.766 625.605 353.578 625.605 350.648C625.605 344.594 620.664 341.566 610.781 341.566H597.363V359.379ZM650.801 396V388.617L660.352 386.977V341.684L650.801 340.043V332.602H671.836H681.387V340.043L671.836 341.684V377.484L672.188 377.602L700.137 332.602H711.68H721.23V340.043L711.68 341.684V386.977L721.23 388.617V396H690.586V388.617L700.137 386.977V351.117L699.785 351L671.836 396H650.801ZM759.902 397.23C754.16 397.23 749.16 395.902 744.902 393.246C740.645 390.551 737.344 386.82 735 382.055C732.656 377.289 731.484 371.781 731.484 365.531V363.07C731.484 357.055 732.617 351.664 734.883 346.898C737.148 342.133 740.41 338.363 744.668 335.59C748.926 332.816 754.004 331.43 759.902 331.43C765.02 331.43 769.492 332.27 773.32 333.949C777.188 335.629 780.43 337.934 783.047 340.863L783.34 356.098H774.316L772.324 345.023C770.996 343.656 769.336 342.562 767.344 341.742C765.352 340.922 763.008 340.512 760.312 340.512C756.875 340.512 753.848 341.527 751.23 343.559C748.652 345.59 746.641 348.305 745.195 351.703C743.75 355.102 743.027 358.891 743.027 363.07V365.531C743.027 370.141 743.691 374.145 745.02 377.543C746.387 380.941 748.32 383.578 750.82 385.453C753.359 387.289 756.367 388.207 759.844 388.207C763.75 388.207 766.992 387.133 769.57 384.984C772.148 382.836 773.73 379.887 774.316 376.137H784.688L784.805 376.488C784.609 380.121 783.535 383.52 781.582 386.684C779.629 389.848 776.836 392.406 773.203 394.359C769.609 396.273 765.176 397.23 759.902 397.23ZM823.887 396V388.617L833.438 386.977V319.77L823.887 318.129V310.688H907.559V318.129L898.008 319.77V386.977L907.559 388.617V396H876.914V388.617L886.465 386.977V319.77H844.98V386.977L854.531 388.617V396H823.887ZM944.707 397.23C938.848 397.23 933.789 395.863 929.531 393.129C925.312 390.355 922.051 386.547 919.746 381.703C917.441 376.82 916.289 371.254 916.289 365.004V363.715C916.289 357.465 917.441 351.918 919.746 347.074C922.051 342.191 925.312 338.363 929.531 335.59C933.789 332.816 938.809 331.43 944.59 331.43C950.449 331.43 955.488 332.816 959.707 335.59C963.965 338.363 967.246 342.172 969.551 347.016C971.855 351.859 973.008 357.426 973.008 363.715V365.004C973.008 371.293 971.855 376.879 969.551 381.762C967.246 386.605 963.984 390.395 959.766 393.129C955.547 395.863 950.527 397.23 944.707 397.23ZM944.707 388.207C948.379 388.207 951.445 387.211 953.906 385.219C956.406 383.188 958.281 380.434 959.531 376.957C960.82 373.441 961.465 369.457 961.465 365.004V363.715C961.465 359.262 960.82 355.297 959.531 351.82C958.281 348.305 956.406 345.551 953.906 343.559C951.406 341.527 948.301 340.512 944.59 340.512C940.918 340.512 937.832 341.527 935.332 343.559C932.832 345.551 930.957 348.305 929.707 351.82C928.457 355.297 927.832 359.262 927.832 363.715V365.004C927.832 369.457 928.457 373.441 929.707 376.957C930.957 380.434 932.832 383.188 935.332 385.219C937.871 387.211 940.996 388.207 944.707 388.207ZM981.68 420.375V412.934L990.645 411.293V341.684L981.094 340.043V332.602H1000.55L1001.6 340.336C1003.71 337.445 1006.27 335.238 1009.28 333.715C1012.32 332.191 1015.84 331.43 1019.82 331.43C1025.06 331.43 1029.53 332.855 1033.24 335.707C1036.95 338.52 1039.79 342.484 1041.74 347.602C1043.69 352.68 1044.67 358.637 1044.67 365.473V366.703C1044.67 372.797 1043.67 378.129 1041.68 382.699C1039.73 387.27 1036.91 390.844 1033.24 393.422C1029.57 395.961 1025.16 397.23 1020 397.23C1016.09 397.23 1012.66 396.586 1009.69 395.297C1006.76 393.969 1004.26 392.016 1002.19 389.438V411.293L1012.27 412.934V420.375H981.68ZM1016.43 388.207C1021.89 388.207 1026.04 386.215 1028.85 382.23C1031.66 378.246 1033.07 373.07 1033.07 366.703V365.473C1033.07 360.629 1032.44 356.371 1031.19 352.699C1029.94 348.988 1028.07 346.078 1025.57 343.969C1023.11 341.859 1020.02 340.805 1016.31 340.805C1013.03 340.805 1010.21 341.547 1007.87 343.031C1005.53 344.516 1003.63 346.547 1002.19 349.125V380.004C1003.63 382.621 1005.51 384.652 1007.81 386.098C1010.16 387.504 1013.03 388.207 1016.43 388.207ZM1066.17 396V388.617L1075.72 386.977V341.566H1062.36L1061.48 351.469H1051.64V332.602H1111.64V351.469H1101.74L1100.86 341.566H1087.27V386.977L1096.82 388.617V396H1066.17Z" fill="#F1F5FA"/>
</svg>
