<svg width="788" height="530" viewBox="0 0 788 530" fill="none" xmlns="http://www.w3.org/2000/svg">
<path d="M519.118 7.94023C512.75 5.11895 506.079 2.64624 499.633 0.521545L636.58 1.43118L711.387 132.282L711.389 132.285L787.425 263.14L713.847 396.315L713.841 396.325L636.174 529.5H480.995C508.571 523.226 532.129 512.259 552.001 495.394C583.67 469.624 599.282 433.081 599.282 387.702C599.282 343.731 585.725 309.546 559.826 282.384L559.817 282.375C533.125 255.711 494.551 233.75 442.898 217.871C407.691 204.813 381.962 192.708 367.694 181.566C353.451 169.511 345.762 156.114 345.762 137.632C345.762 118.642 352.667 102.915 366.485 90.4148C380.287 77.9294 399.808 71.882 425.536 71.882C443.115 71.882 459.854 73.7451 474.946 78.3916L474.95 78.3927C490.405 83.0256 502.155 87.6406 510.266 93.5924L522.52 166.175L522.59 166.592H523.013H592.638H593.138V166.092V57.8521V57.6513L593 57.5063C573.286 36.9213 548.244 20.5577 519.118 7.94023ZM70.3877 141.331H0.5V1.4331H353.895C334.052 8.79056 316.407 18.3872 299.888 32.2757L299.887 32.2769C267.828 59.4322 251.382 94.5632 251.382 137.632C251.382 181.611 265.763 215.344 293.731 240.644L293.734 240.646C322.066 265.904 363.504 286.925 419.23 305.596C451.165 316.79 473.188 327.957 485.8 340.469C498.392 352.963 504.901 369.16 504.901 389.102C504.901 409.033 497.991 424.756 485.41 436.317C472.013 447.875 453.306 453.919 427.584 453.919C407.974 453.919 390.014 451.127 374.516 445.553C359.047 439.524 345.658 432.591 336.315 423.851L326.508 348.448L326.452 348.012H326.013H253.929H253.429V348.512V459.085V459.264L253.544 459.403C273.26 483.266 298.308 501.036 327.846 515.056C341.218 521.402 355.928 526.216 371.974 529.5H110.673V466.95L160.249 455.84L160.639 455.752V455.352V82.1127V81.6127H160.139H74.9502H74.4833L74.4514 82.0785L70.3877 141.331Z" stroke="#CDDEF5"/>
</svg>
