<svg width="1107" height="112" viewBox="0 0 1107 112" fill="none" xmlns="http://www.w3.org/2000/svg">
<path d="M20.7812 87V79.6172L30.332 77.9766V10.418H10.9961L9.29688 22.2539H0.625V1.6875H71.5234V22.2539H62.9688L61.2109 10.418H41.875V77.9766L51.4258 79.6172V87H20.7812ZM104.746 88.2305C98.8867 88.2305 93.7891 86.9023 89.4531 84.2461C85.1172 81.5508 81.7578 77.8203 79.375 73.0547C77.0312 68.2891 75.8594 62.7812 75.8594 56.5312V53.9531C75.8594 47.9375 77.0898 42.5664 79.5508 37.8398C82.0508 33.0742 85.3516 29.3242 89.4531 26.5898C93.5938 23.8164 98.1055 22.4297 102.988 22.4297C111.504 22.4297 117.949 25.0078 122.324 30.1641C126.738 35.3203 128.945 42.1953 128.945 50.7891V57.9961H87.8125L87.6367 58.2891C87.7539 64.3828 89.2969 69.4023 92.2656 73.3477C95.2344 77.2539 99.3945 79.207 104.746 79.207C108.652 79.207 112.07 78.6602 115 77.5664C117.969 76.4336 120.527 74.8906 122.676 72.9375L127.188 80.4375C124.922 82.625 121.914 84.4805 118.164 86.0039C114.453 87.4883 109.98 88.2305 104.746 88.2305ZM88.1641 48.9727H117.402V47.4492C117.402 42.918 116.191 39.1289 113.77 36.082C111.348 33.0352 107.754 31.5117 102.988 31.5117C99.1211 31.5117 95.8203 33.1523 93.0859 36.4336C90.3516 39.6758 88.6719 43.7578 88.0469 48.6797L88.1641 48.9727ZM136.094 87V79.6172L143.125 78.2695L162.051 54.9492L143.535 32.3906L137.266 31.043V23.6016H162.109V31.043L155.781 31.7461L168.789 47.918L181.445 31.6875L174.648 31.043V23.6016H199.082V31.043L192.637 32.3906L175.469 54.7734L195.215 78.2695L201.777 79.6172V87H174.883V79.6172L182.5 78.9727L168.613 62.0391L155.137 78.9727L161.992 79.6172V87H136.094ZM209.863 87V79.6172L219.414 77.9766V32.6836L209.863 31.043V23.6016H240.508V31.043L230.957 32.6836V51.0234H259.141V32.6836L249.59 31.043V23.6016H280.293V31.043L270.742 32.6836V77.9766L280.293 79.6172V87H249.59V79.6172L259.141 77.9766V60.0469H230.957V77.9766L240.508 79.6172V87H209.863ZM318.965 88.2305C313.105 88.2305 308.047 86.8633 303.789 84.1289C299.57 81.3555 296.309 77.5469 294.004 72.7031C291.699 67.8203 290.547 62.2539 290.547 56.0039V54.7148C290.547 48.4648 291.699 42.918 294.004 38.0742C296.309 33.1914 299.57 29.3633 303.789 26.5898C308.047 23.8164 313.066 22.4297 318.848 22.4297C324.707 22.4297 329.746 23.8164 333.965 26.5898C338.223 29.3633 341.504 33.1719 343.809 38.0156C346.113 42.8594 347.266 48.4258 347.266 54.7148V56.0039C347.266 62.293 346.113 67.8789 343.809 72.7617C341.504 77.6055 338.242 81.3945 334.023 84.1289C329.805 86.8633 324.785 88.2305 318.965 88.2305ZM318.965 79.207C324.434 79.207 328.594 77.0195 331.445 72.6445C334.297 68.2695 335.723 62.7227 335.723 56.0039V54.7148C335.723 50.2617 335.078 46.2969 333.789 42.8203C332.539 39.3047 330.664 36.5508 328.164 34.5586C325.664 32.5273 322.559 31.5117 318.848 31.5117C315.176 31.5117 312.09 32.5273 309.59 34.5586C307.09 36.5508 305.215 39.3047 303.965 42.8203C302.715 46.2969 302.09 50.2617 302.09 54.7148V56.0039C302.09 62.7227 303.496 68.2695 306.309 72.6445C309.16 77.0195 313.379 79.207 318.965 79.207ZM396.66 88.2305C388.105 88.2305 380.957 86.3555 375.215 82.6055C369.512 78.8555 365.215 73.7188 362.324 67.1953C359.473 60.6719 358.047 53.2695 358.047 44.9883V43.7578C358.047 35.3984 359.551 27.9766 362.559 21.4922C365.566 14.9688 369.883 9.83203 375.508 6.08203C381.133 2.33203 387.852 0.457031 395.664 0.457031C401.172 0.457031 406.211 1.31641 410.781 3.03516C415.352 4.75391 419.141 6.94141 422.148 9.59766V27.9961H412.949L411.719 14.5195C407.773 11.5117 402.402 10.0078 395.605 10.0078C390.02 10.0078 385.293 11.4531 381.426 14.3438C377.559 17.1953 374.629 21.1406 372.637 26.1797C370.645 31.2188 369.648 37.0391 369.648 43.6406V44.9883C369.648 55.7305 372.012 64.0703 376.738 70.0078C381.465 75.9062 388.242 78.8555 397.07 78.8555C399.805 78.8555 402.48 78.5234 405.098 77.8594C407.715 77.1953 409.883 76.3359 411.602 75.2812L412.891 63.3867H421.914V81.9023C418.711 83.8945 414.883 85.457 410.43 86.5898C405.977 87.6836 401.387 88.2305 396.66 88.2305ZM464.043 88.2305C458.184 88.2305 453.086 86.9023 448.75 84.2461C444.414 81.5508 441.055 77.8203 438.672 73.0547C436.328 68.2891 435.156 62.7812 435.156 56.5312V53.9531C435.156 47.9375 436.387 42.5664 438.848 37.8398C441.348 33.0742 444.648 29.3242 448.75 26.5898C452.891 23.8164 457.402 22.4297 462.285 22.4297C470.801 22.4297 477.246 25.0078 481.621 30.1641C486.035 35.3203 488.242 42.1953 488.242 50.7891V57.9961H447.109L446.934 58.2891C447.051 64.3828 448.594 69.4023 451.562 73.3477C454.531 77.2539 458.691 79.207 464.043 79.207C467.949 79.207 471.367 78.6602 474.297 77.5664C477.266 76.4336 479.824 74.8906 481.973 72.9375L486.484 80.4375C484.219 82.625 481.211 84.4805 477.461 86.0039C473.75 87.4883 469.277 88.2305 464.043 88.2305ZM447.461 48.9727H476.699V47.4492C476.699 42.918 475.488 39.1289 473.066 36.082C470.645 33.0352 467.051 31.5117 462.285 31.5117C458.418 31.5117 455.117 33.1523 452.383 36.4336C449.648 39.6758 447.969 43.7578 447.344 48.6797L447.461 48.9727ZM495.508 111.375V103.934L504.473 102.293V32.6836L494.922 31.043V23.6016H514.375L515.43 31.3359C519.766 25.3984 525.84 22.4297 533.652 22.4297C538.887 22.4297 543.359 23.8555 547.07 26.707C550.781 29.5195 553.613 33.4844 555.566 38.6016C557.52 43.6797 558.496 49.6367 558.496 56.4727V57.7031C558.496 63.7969 557.5 69.1289 555.508 73.6992C553.555 78.2695 550.742 81.8438 547.07 84.4219C543.398 86.9609 538.984 88.2305 533.828 88.2305C526.133 88.2305 520.195 85.6328 516.016 80.4375V102.293L526.094 103.934V111.375H495.508ZM530.254 79.207C535.723 79.207 539.863 77.2148 542.676 73.2305C545.488 69.2461 546.895 64.0703 546.895 57.7031V56.4727C546.895 49.2461 545.488 43.3281 542.676 38.7188C539.863 34.1094 535.684 31.8047 530.137 31.8047C526.855 31.8047 524.043 32.5469 521.699 34.0312C519.355 35.5156 517.461 37.5469 516.016 40.125V71.0039C517.461 73.6211 519.336 75.6523 521.641 77.0977C523.984 78.5039 526.855 79.207 530.254 79.207ZM571.27 87V79.6172L580.82 77.9766V32.6836L571.27 31.043V23.6016H605.781C614.141 23.6016 620.625 25.0664 625.234 27.9961C629.844 30.8867 632.148 35.2422 632.148 41.0625C632.148 44.0312 631.25 46.6875 629.453 49.0312C627.656 51.3359 625.117 53.0938 621.836 54.3047C625.781 55.2812 628.867 57.1172 631.094 59.8125C633.32 62.4688 634.434 65.5156 634.434 68.9531C634.434 74.8906 632.266 79.3828 627.93 82.4297C623.633 85.4766 617.598 87 609.824 87H571.27ZM592.363 50.3789H605.84C615.684 50.3789 620.605 47.4688 620.605 41.6484C620.605 35.5938 615.664 32.5664 605.781 32.5664H592.363V50.3789ZM592.363 78.0938H609.824C618.496 78.0938 622.832 74.9492 622.832 68.6602C622.832 65.6523 621.738 63.3281 619.551 61.6875C617.363 60.0469 614.121 59.2266 609.824 59.2266H592.363V78.0938ZM645.801 87V79.6172L655.352 77.9766V32.6836L645.801 31.043V23.6016H676.387V31.043L666.836 32.6836V68.4844L667.188 68.6016L695.137 23.6016H716.23V31.043L706.68 32.6836V77.9766L716.23 79.6172V87H685.586V79.6172L695.137 77.9766V42.1172L694.785 42L666.836 87H645.801ZM754.902 88.2305C749.16 88.2305 744.16 86.9023 739.902 84.2461C735.645 81.5508 732.344 77.8203 730 73.0547C727.656 68.2891 726.484 62.7812 726.484 56.5312V54.0703C726.484 48.0547 727.617 42.6641 729.883 37.8984C732.148 33.1328 735.41 29.3633 739.668 26.5898C743.926 23.8164 749.004 22.4297 754.902 22.4297C760.02 22.4297 764.492 23.2695 768.32 24.9492C772.188 26.6289 775.43 28.9336 778.047 31.8633L778.34 47.0977H769.316L767.324 36.0234C765.996 34.6562 764.336 33.5625 762.344 32.7422C760.352 31.9219 758.008 31.5117 755.312 31.5117C751.875 31.5117 748.848 32.5273 746.23 34.5586C743.652 36.5898 741.641 39.3047 740.195 42.7031C738.75 46.1016 738.027 49.8906 738.027 54.0703V56.5312C738.027 63.4844 739.531 69.0117 742.539 73.1133C745.547 77.1758 749.648 79.207 754.844 79.207C758.75 79.207 761.992 78.1328 764.57 75.9844C767.148 73.8359 768.73 70.8867 769.316 67.1367H779.688L779.805 67.4883C779.609 71.1211 778.535 74.5195 776.582 77.6836C774.629 80.8477 771.836 83.4062 768.203 85.3594C764.609 87.2734 760.176 88.2305 754.902 88.2305ZM818.887 87V79.6172L828.438 77.9766V10.7695L818.887 9.12891V1.6875H902.559V9.12891L893.008 10.7695V77.9766L902.559 79.6172V87H871.914V79.6172L881.465 77.9766V10.7695H839.98V77.9766L849.531 79.6172V87H818.887ZM939.707 88.2305C933.848 88.2305 928.789 86.8633 924.531 84.1289C920.312 81.3555 917.051 77.5469 914.746 72.7031C912.441 67.8203 911.289 62.2539 911.289 56.0039V54.7148C911.289 48.4648 912.441 42.918 914.746 38.0742C917.051 33.1914 920.312 29.3633 924.531 26.5898C928.789 23.8164 933.809 22.4297 939.59 22.4297C945.449 22.4297 950.488 23.8164 954.707 26.5898C958.965 29.3633 962.246 33.1719 964.551 38.0156C966.855 42.8594 968.008 48.4258 968.008 54.7148V56.0039C968.008 62.293 966.855 67.8789 964.551 72.7617C962.246 77.6055 958.984 81.3945 954.766 84.1289C950.547 86.8633 945.527 88.2305 939.707 88.2305ZM939.707 79.207C945.176 79.207 949.336 77.0195 952.188 72.6445C955.039 68.2695 956.465 62.7227 956.465 56.0039V54.7148C956.465 50.2617 955.82 46.2969 954.531 42.8203C953.281 39.3047 951.406 36.5508 948.906 34.5586C946.406 32.5273 943.301 31.5117 939.59 31.5117C935.918 31.5117 932.832 32.5273 930.332 34.5586C927.832 36.5508 925.957 39.3047 924.707 42.8203C923.457 46.2969 922.832 50.2617 922.832 54.7148V56.0039C922.832 62.7227 924.238 68.2695 927.051 72.6445C929.902 77.0195 934.121 79.207 939.707 79.207ZM976.68 111.375V103.934L985.645 102.293V32.6836L976.094 31.043V23.6016H995.547L996.602 31.3359C1000.94 25.3984 1007.01 22.4297 1014.82 22.4297C1020.06 22.4297 1024.53 23.8555 1028.24 26.707C1031.95 29.5195 1034.79 33.4844 1036.74 38.6016C1038.69 43.6797 1039.67 49.6367 1039.67 56.4727V57.7031C1039.67 63.7969 1038.67 69.1289 1036.68 73.6992C1034.73 78.2695 1031.91 81.8438 1028.24 84.4219C1024.57 86.9609 1020.16 88.2305 1015 88.2305C1007.3 88.2305 1001.37 85.6328 997.188 80.4375V102.293L1007.27 103.934V111.375H976.68ZM1011.43 79.207C1016.89 79.207 1021.04 77.2148 1023.85 73.2305C1026.66 69.2461 1028.07 64.0703 1028.07 57.7031V56.4727C1028.07 49.2461 1026.66 43.3281 1023.85 38.7188C1021.04 34.1094 1016.86 31.8047 1011.31 31.8047C1008.03 31.8047 1005.21 32.5469 1002.87 34.0312C1000.53 35.5156 998.633 37.5469 997.188 40.125V71.0039C998.633 73.6211 1000.51 75.6523 1002.81 77.0977C1005.16 78.5039 1008.03 79.207 1011.43 79.207ZM1061.17 87V79.6172L1070.72 77.9766V32.5664H1057.36L1056.48 42.4688H1046.64V23.6016H1106.64V42.4688H1096.74L1095.86 32.5664H1082.27V77.9766L1091.82 79.6172V87H1061.17Z" fill="#F1F5FA"/>
</svg>
