<svg width="478" height="321" viewBox="0 0 478 321" fill="none" xmlns="http://www.w3.org/2000/svg">
<path d="M316.117 2.79632C315.964 2.72865 315.811 2.6613 315.658 2.59429L385.059 3.05552L429.714 81.2077L429.719 81.2153L429.723 81.2229L475.125 159.401L431.198 238.951L384.831 318.5H307.432C318.259 314.528 327.95 309.026 336.547 301.729C356.296 285.64 365.959 262.843 365.959 234.816C365.959 207.677 357.573 186.412 341.468 169.513L341.447 169.491L341.425 169.469C324.957 153.01 301.278 139.563 269.804 129.874C248.556 121.987 233.304 114.769 224.961 108.263C216.744 101.294 212.496 93.7607 212.496 83.3583C212.496 72.4638 216.423 63.5349 224.317 56.3896C232.13 49.3178 243.34 45.7333 258.588 45.7333C269.084 45.7333 278.985 46.8477 287.85 49.5785L287.859 49.5812L287.868 49.5839C296.726 52.2406 303.299 54.8169 307.862 57.9491L315.128 101.011L315.48 103.095H317.593H359.74H362.24V100.595V35.0387V34.0351L361.546 33.3101C349.373 20.5918 333.956 10.5292 316.117 2.79632ZM41.5539 83.4014H3.49805V3.06514H204.291C196.067 6.9455 188.415 11.7253 181.115 17.8668L181.108 17.8727C161.207 34.7392 150.969 56.6308 150.969 83.3583C150.969 110.534 159.881 131.586 177.328 147.377L177.334 147.383L177.341 147.389C194.809 162.971 220.21 175.818 254.058 187.166C273.34 193.929 286.259 200.561 293.519 207.768C300.685 214.882 304.433 224.111 304.433 235.664C304.433 247.161 300.478 256.071 293.369 262.619C285.783 269.154 275.042 272.724 259.828 272.724C248.17 272.724 237.567 271.064 228.475 267.796C219.534 264.308 211.974 260.393 206.655 255.631L200.822 210.758L200.539 208.58H198.343H154.709H152.209V211.08V278.049V278.948L152.781 279.641C164.966 294.397 180.412 305.339 198.51 313.933C202.094 315.636 205.83 317.157 209.715 318.5H70.1888V284.572L98.4821 278.228L100.435 277.79V275.789V49.7324V47.2324H97.9352H46.3676H44.0331L43.8735 49.5614L41.5539 83.4014Z" stroke="white" stroke-width="5"/>
</svg>
